<?xml version="1.0" encoding="UTF-8" standalone="no"?>
<!-- Created with Inkscape (http://www.inkscape.org/) -->

<svg
   width="1080"
   height="1440"
   viewBox="0 0 285.74999 381"
   version="1.1"
   id="svg5"
   xml:space="preserve"
   inkscape:version="1.2.2 (732a01da63, 2022-12-09)"
   sodipodi:docname="25122501a.svg"
   xmlns:inkscape="http://www.inkscape.org/namespaces/inkscape"
   xmlns:sodipodi="http://sodipodi.sourceforge.net/DTD/sodipodi-0.dtd"
   xmlns="http://www.w3.org/2000/svg"
   xmlns:svg="http://www.w3.org/2000/svg"><sodipodi:namedview
     id="namedview7"
     pagecolor="#ffffff"
     bordercolor="#000000"
     borderopacity="0.25"
     inkscape:showpageshadow="2"
     inkscape:pageopacity="0.0"
     inkscape:pagecheckerboard="0"
     inkscape:deskcolor="#d1d1d1"
     inkscape:document-units="mm"
     showgrid="false"
     inkscape:zoom="0.19041982"
     inkscape:cx="695.83092"
     inkscape:cy="315.09324"
     inkscape:window-width="1920"
     inkscape:window-height="1009"
     inkscape:window-x="-8"
     inkscape:window-y="-8"
     inkscape:window-maximized="1"
     inkscape:current-layer="layer1" /><defs
     id="defs2" /><g
     inkscape:label="Capa 1"
     inkscape:groupmode="layer"
     id="layer1"><path
       style="fill:#cccccc;stroke-width:0.373529"
       d="m 159.28788,347.91752 c -2.11976,-1.19857 -5.62751,-4.31736 -14.38819,-12.79269 l -3.98283,-3.85311 -2.1554,0.6266 c -3.11531,0.90564 -5.8455,0.60852 -7.31354,-0.79592 -1.6976,-1.62407 -2.60722,-3.29442 -3.36423,-6.17783 -0.59783,-2.27708 -0.99727,-2.94202 -3.28897,-5.47512 -1.43467,-1.58581 -3.08021,-3.49854 -3.65676,-4.25051 -0.57654,-0.75198 -2.49867,-3.27969 -4.27139,-5.61713 l -3.22315,-4.24989 -1.49096,0.14218 c -1.68229,0.16044 -3.18129,-0.48336 -4.55905,-1.95804 -0.72235,-0.77315 -0.94863,-1.47986 -1.06649,-3.33076 -0.13184,-2.07043 -0.0416,-2.47494 0.76009,-3.40695 0.86699,-1.00793 0.88503,-1.12915 0.38432,-2.58246 -0.28895,-0.83868 -0.70896,-2.89707 -0.93335,-4.57419 l -0.408,-3.0493 -1.35942,-0.21738 c -2.29099,-0.36635 -3.74409,-2.53598 -3.74409,-5.5903 0,-1.43496 -0.2024,-1.77296 -2.27808,-3.80436 -2.59351,-2.53818 -3.38594,-3.68514 -6.02403,-8.71915 -1.03636,-1.9776 -2.18609,-4.02547 -2.55496,-4.55083 -0.79887,-1.13779 -1.75872,-3.52264 -3.74987,-9.31686 -2.0221,-5.8843 -2.84937,-12.55447 -2.03907,-16.44071 0.30385,-1.45725 1.07241,-3.55834 1.70793,-4.6691 1.63445,-2.85673 6.51713,-7.26302 10.21492,-9.21829 3.02316,-1.59855 3.06575,-1.60843 6.77757,-1.57151 3.23208,0.0322 4.27073,0.2167 7.70971,1.36993 4.78417,1.60432 5.97342,2.18232 8.16529,3.96851 0.92449,0.75338 2.10111,1.6439 2.61471,1.97893 0.5136,0.33503 1.49482,1.1325 2.18049,1.77215 l 1.24667,1.163 0.72332,-0.91956 c 0.39783,-0.50576 1.38996,-1.21368 2.20473,-1.57316 1.23048,-0.54288 1.5189,-0.87895 1.7028,-1.98409 0.85097,-5.11391 3.10189,-8.55294 6.77396,-10.34952 1.84466,-0.90251 2.64649,-1.04938 6.4743,-1.18585 4.0649,-0.14493 4.62661,-0.0757 8.07278,0.99494 4.44279,1.38027 7.18943,3.20795 9.55991,6.36138 2.00129,2.66231 4.81464,8.0462 5.71357,10.93402 0.61756,1.98391 0.73852,2.12212 2.03926,2.33012 1.47198,0.23538 3.22476,1.69618 3.77859,3.14916 0.18129,0.47561 0.32962,2.03043 0.32962,3.45515 v 2.59039 h 1.90806 c 1.73006,0 2.12907,-0.17586 4.27701,-1.88502 1.30291,-1.03676 2.76431,-2.33945 3.24754,-2.89486 0.89628,-1.03013 4.29743,-4.22096 6.6505,-6.23924 0.71855,-0.61633 2.56253,-2.21669 4.09771,-3.55636 5.35621,-4.6741 10.65261,-8.79209 17.35888,-13.4967 3.04078,-2.13317 12.82741,-7.76381 16.22043,-9.33226 3.78204,-1.74827 5.64907,-2.13428 6.33361,-1.30947 0.75752,0.91276 0.20666,1.84525 -2.29609,3.88676 -2.95592,2.41118 -10.0144,9.61929 -14.18636,14.48709 -1.76889,2.06393 -4.60191,5.0466 -6.29561,6.62816 -1.6937,1.58157 -2.99677,2.95826 -2.89571,3.05932 0.10106,0.10106 1.34861,-0.15826 2.77233,-0.57627 1.42372,-0.41801 3.51307,-1.02809 4.64299,-1.35574 2.44723,-0.70963 11.0048,-0.82275 12.2398,-0.1618 1.8901,1.01155 1.18769,3.16205 -1.76937,5.41713 -1.69309,1.29118 -2.69789,1.79309 -11.76468,5.87666 l -4.46925,2.01289 1.66778,0.25246 c 0.91728,0.13885 2.8444,0.26586 4.28249,0.28223 4.52777,0.0516 6.40448,1.00277 6.0933,3.08841 -0.15269,1.02344 -7.67148,4.48297 -11.13595,5.12385 -3.36271,0.62206 -6.72353,1.5697 -6.72353,1.89582 0,0.14974 1.00087,0.80572 2.22416,1.45773 4.61597,2.46028 4.90791,4.48568 0.99745,6.9198 -2.71089,1.68743 -11.19316,2.17445 -17.27033,0.9916 -2.03166,-0.39543 -4.40056,-0.79862 -5.26421,-0.89597 l -1.5703,-0.17699 -0.21893,1.73641 c -0.12041,0.95503 -0.5485,3.75347 -0.95131,6.21877 -0.40282,2.46529 -0.98358,6.83558 -1.29058,9.71176 -0.72967,6.83589 -0.95923,7.68672 -2.77068,10.26911 -1.2486,1.78 -1.52645,2.48826 -1.52645,3.891 0,0.94319 0.13014,1.71489 0.28919,1.71489 0.15906,0 1.62983,-0.77321 3.26839,-1.71825 3.91764,-2.2595 13.55539,-6.87293 14.35801,-6.87293 0.8374,0 1.74266,1.04733 4.1972,4.85589 3.63805,5.64494 4.50768,7.39533 4.22793,8.50994 -0.5153,2.05312 -2.1227,2.08025 -5.38944,0.0909 l -2.39431,-1.45803 -1.34098,0.73535 c -0.73754,0.40444 -2.56954,1.63269 -4.07109,2.72945 -1.50156,1.09675 -5.13853,3.3721 -8.08216,5.05633 l -5.35205,3.06224 -0.24545,3.24351 c -0.135,1.78393 -0.33539,3.70575 -0.44532,4.27072 l -0.19986,1.0272 2.92453,-0.007 c 8.56808,-0.0196 19.71663,1.08379 26.45688,2.61861 0.82177,0.18712 2.27014,0.43933 3.21861,0.56047 1.55549,0.19866 1.7818,0.356 2.30931,1.60555 0.32164,0.76192 0.67985,2.47789 0.796,3.81325 0.11615,1.33537 0.49209,4.78266 0.83542,7.66064 0.7312,6.12933 0.58286,7.28054 -0.93811,7.28054 -1.21679,0 -1.81556,-0.60542 -4.37526,-4.42388 -1.01133,-1.50865 -2.09252,-2.878 -2.40266,-3.04301 -0.31014,-0.16501 -2.74904,-0.49615 -5.41978,-0.73586 -2.67073,-0.23972 -6.0325,-0.59465 -7.47058,-0.78873 -9.00925,-1.21591 -11.89591,-1.27867 -22.66142,-0.49267 l -3.2379,0.2364 -0.59557,3.24076 c -0.32756,1.78242 -0.61446,4.07327 -0.63757,5.09079 -0.084,3.70106 -0.4536,3.93192 -3.51937,2.19844 z m 1.30909,-6.88518 c 0.26124,-1.74625 1.03102,-6.36867 1.71061,-10.27205 0.67958,-3.90339 1.35633,-7.91871 1.50387,-8.92294 l 0.26827,-1.82588 -2.57148,1.38231 c -1.41431,0.76028 -3.58,1.77559 -4.81265,2.25626 -1.23265,0.48067 -4.75694,2.07901 -7.83177,3.55187 l -5.59059,2.67794 3.57715,3.42845 c 8.85717,8.48898 12.76067,11.90961 13.01554,11.40551 0.14083,-0.27856 0.4698,-1.93522 0.73105,-3.68147 z m 47.24643,-0.84044 c -0.14951,-0.66768 -0.4576,-3.48316 -0.68465,-6.25661 l -0.41281,-5.04265 -2.98694,-0.45473 c -1.64282,-0.25009 -4.66782,-0.78964 -6.72224,-1.19898 -3.57473,-0.71226 -5.43141,-0.85286 -18.45472,-1.39745 -7.44989,-0.31153 -7.27874,-0.17383 -6.91756,-5.56573 l 0.26131,-3.90095 -1.45187,0.59892 c -3.05729,1.26118 -3.8798,1.97774 -3.8798,3.38004 0,1.66023 -0.58158,5.62831 -1.54365,10.5322 -0.4166,2.12353 -0.67182,3.9466 -0.56716,4.05127 0.10467,0.10466 2.00914,-0.11547 4.23217,-0.48919 5.17453,-0.8699 13.85106,-0.88766 18.79628,-0.0385 1.9517,0.33515 6.23795,0.88497 9.525,1.22184 6.86921,0.70398 7.61764,1.00401 9.525,3.81839 0.71905,1.06097 1.36273,1.93513 1.43042,1.94256 0.0677,0.007 7.5e-4,-0.53277 -0.14878,-1.20046 z m -63.1343,-14.07783 c 3.71639,-1.81349 8.01774,-3.84278 9.55855,-4.50953 2.8044,-1.21354 16.12717,-7.57621 17.18235,-8.20592 2.52596,-1.50744 9.13722,-5.34647 10.64559,-6.18168 1.0272,-0.56878 3.21235,-1.99907 4.85588,-3.17842 3.25735,-2.33738 5.77429,-3.72088 6.76921,-3.72088 0.34966,0 1.37808,0.43504 2.28539,0.96675 0.9073,0.53172 1.73408,0.88231 1.83729,0.77911 0.10321,-0.10321 -0.65309,-1.5888 -1.68067,-3.30132 -1.02757,-1.71251 -2.07866,-3.58025 -2.33575,-4.15054 -0.25708,-0.57028 -0.56454,-0.98665 -0.68321,-0.92526 -0.11869,0.0614 -2.98924,1.49188 -6.37902,3.17886 -3.38978,1.68698 -7.25581,3.68076 -8.59118,4.43062 -1.33537,0.74985 -3.85669,2.07365 -5.60294,2.94176 -10.23384,5.08755 -19.24386,9.67891 -21.3278,10.86832 -1.31523,0.75066 -2.91259,1.66353 -3.54971,2.02861 -0.63712,0.36508 -2.43094,1.43626 -3.98626,2.38041 -3.71538,2.25538 -4.50676,2.54368 -5.33,1.94171 -0.61474,-0.44951 -0.60301,-0.54598 0.19807,-1.6295 0.92663,-1.25333 3.27572,-3.01343 5.03915,-3.77569 1.6079,-0.69502 11.90941,-6.89774 14.76243,-8.88872 6.01017,-4.1942 13.15222,-10.44161 15.29749,-13.38129 2.07948,-2.84951 2.57347,-4.6171 3.02747,-10.83295 0.22508,-3.08162 0.71746,-7.19978 1.09418,-9.15147 0.37672,-1.95169 0.97591,-6.20878 1.33153,-9.4602 0.54529,-4.9855 0.57241,-6.24369 0.17312,-8.03088 -0.60714,-2.71749 -1.9214,-5.66086 -2.92603,-6.55302 -1.2498,-1.1099 -4.22407,-0.51425 -11.27423,2.25788 -3.38978,1.33287 -7.20043,2.82995 -8.46812,3.32687 -1.26769,0.49691 -2.41707,0.90347 -2.55419,0.90347 -0.13712,0 -1.62125,0.60124 -3.29806,1.33608 -1.67681,0.73485 -3.88388,1.70136 -4.90461,2.1478 -1.02073,0.44644 -4.47584,2.0946 -7.67804,3.66257 -3.20219,1.56797 -7.82992,3.64221 -10.28384,4.60941 -8.19967,3.23186 -10.76897,4.36415 -17.62858,7.76887 l -6.81691,3.38353 v 1.76478 c 0,1.17267 0.23636,2.05668 0.70446,2.63476 0.68265,0.84304 0.76648,0.8543 2.70809,0.36366 1.10199,-0.27847 2.42384,-0.79803 2.93745,-1.15457 0.92415,-0.64154 3.69172,-1.8617 8.03088,-3.54064 4.24847,-1.64384 11.95994,-5.0922 14.75441,-6.59777 1.54081,-0.83013 3.55787,-1.81195 4.48235,-2.18182 3.53898,-1.41588 7.86115,-3.36549 13.2603,-5.98137 7.12142,-3.45031 15.33522,-6.71851 16.88906,-6.72001 2.07816,-0.002 2.16094,0.47015 2.16094,12.32531 0,11.11077 -0.39858,15.14972 -1.63534,16.57145 -0.85365,0.98134 -10.01191,7.8682 -14.17569,10.6599 -1.91651,1.28496 -3.76709,2.61721 -4.11242,2.96056 -0.34533,0.34334 -2.55926,2.07848 -4.91985,3.85587 -7.0385,5.29956 -12.75484,10.67743 -13.6651,12.85599 -1.4497,3.46963 0.0545,10.14092 2.80088,12.42192 1.19295,0.99082 3.9769,0.16395 11.02103,-3.27338 z m -16.95996,-8.33393 c 0.001,-0.2568 0.17822,-1.10117 0.3935,-1.87637 0.48386,-1.74236 5.27174,-6.58428 10.79518,-10.91701 2.0952,-1.64353 5.60312,-4.40488 7.79538,-6.13633 2.19225,-1.73145 5.75084,-4.29168 7.90798,-5.68939 3.33988,-2.16409 8.32905,-5.62319 11.27527,-7.81742 0.77839,-0.5797 0.80047,-0.87443 0.97561,-13.02175 l 0.17919,-12.42863 -0.89224,0.267 c -1.44663,0.4329 -4.91465,1.94329 -12.65842,5.51297 -4.0061,1.84671 -8.79662,4.02299 -10.64559,4.83619 -1.84897,0.8132 -5.21074,2.37102 -7.47059,3.46183 -7.00948,3.3834 -9.83631,4.63349 -16.06176,7.10289 -5.46899,2.16934 -10.64561,4.57099 -10.64553,4.93892 2.3e-4,1.03922 1.24689,6.49578 1.93373,8.46378 l 0.82123,2.35309 1.48177,-0.27097 c 3.99056,-0.72972 6.21562,2.97866 3.73701,6.22827 l -0.9909,1.29914 1.11845,1.19726 c 1.08322,1.15956 3.39792,4.09188 6.09277,7.71846 1.82139,2.45113 4.24094,5.21809 4.57573,5.23273 0.15408,0.007 0.28109,-0.19786 0.28223,-0.45466 z m 41.83321,-14.95942 c 2.21127,-1.09729 2.43888,-1.31938 2.55055,-2.48875 l 0.1226,-1.28394 -1.61672,1.47861 c -0.88919,0.81324 -2.20503,1.93748 -2.92407,2.49831 -1.71994,1.3415 -1.11377,1.27522 1.86764,-0.20423 z m -55.50516,-1.16446 c 1.05576,-0.90368 1.38858,-1.42915 1.20621,-1.90441 -0.21867,-0.56986 -0.56969,-0.62381 -2.66297,-0.40935 -2.16509,0.22182 -2.4593,0.16984 -2.88355,-0.50951 -0.72279,-1.15736 -1.03982,-0.91134 -1.03982,0.8069 0,3.28238 2.71311,4.2992 5.38013,2.01637 z m 0.59634,-30.67808 c 2.15713,-1.07633 5.93912,-2.74081 8.40441,-3.69884 6.24221,-2.42577 8.18926,-3.2888 14.38088,-6.37436 5.8396,-2.91012 8.50404,-4.06176 17.74265,-7.6688 3.28706,-1.28337 6.75641,-2.72257 7.70967,-3.19822 l 1.73319,-0.86481 -0.60966,-1.6954 c -0.67626,-1.8806 -0.85136,-1.94893 -2.85202,-1.113 -1.93962,0.81042 -4.91141,0.83421 -5.7,0.0456 -0.57861,-0.57861 -0.57135,-0.65681 0.10694,-1.1528 0.40022,-0.29264 1.4011,-0.72171 2.22418,-0.95348 0.82309,-0.23177 2.63112,-0.78103 4.01785,-1.22058 l 2.52132,-0.79918 v -1.90781 c 0,-3.62799 -2.07847,-9.10419 -5.22503,-13.7665 -3.53776,-5.24198 -10.40822,-7.98153 -17.59318,-7.01517 -4.17531,0.56158 -6.11187,1.73081 -7.51154,4.53523 -0.56052,1.12309 -1.12809,2.6723 -1.26126,3.44271 -0.23988,1.38775 -0.23049,1.40081 1.01341,1.40894 3.38709,0.0222 8.35482,4.32656 11.06916,9.5912 1.63197,3.16531 2.10131,5.7153 1.05194,5.7153 -0.54715,0 -2.46115,-2.04665 -2.46115,-2.63172 0,-0.80519 -3.45856,-5.57005 -5.32167,-7.33165 -2.54326,-2.4047 -4.30417,-2.97662 -7.18198,-2.33259 -1.09701,0.2455 -2.46557,0.82193 -3.04125,1.28096 l -1.0467,0.8346 1.87581,2.19535 c 3.21374,3.76118 5.36183,6.75671 6.31789,8.81031 0.90147,1.93637 1.24141,4.40415 0.60667,4.40415 -0.17635,0 -0.94873,-0.94597 -1.7164,-2.10216 -1.49152,-2.24639 -7.08489,-9.11554 -9.43026,-11.58118 -1.77711,-1.86825 -5.34184,-4.85741 -7.7013,-6.45783 -3.54508,-2.40464 -11.86481,-4.74927 -15.08489,-4.25115 -4.83697,0.74823 -12.24943,7.25312 -13.96212,12.25262 -0.61626,1.79891 -0.61767,7.23076 -0.003,10.64558 1.38519,7.6925 8.24204,22.32369 12.69136,27.08089 l 2.09613,2.24117 4.10882,-2.20521 c 2.25986,-1.21287 5.87375,-3.08585 8.03089,-4.16219 z m 88.99338,-6.87341 c 1.18129,-0.45112 2.1478,-0.97281 2.1478,-1.15932 0,-0.52213 -2.77522,-1.83254 -7.09706,-3.35112 -3.74676,-1.3165 -3.92206,-1.42592 -3.92206,-2.44798 0,-1.40814 1.21008,-2.01309 4.04113,-2.02026 1.19542,-0.003 3.88483,-0.42077 5.97647,-0.92832 2.09164,-0.50754 4.54437,-1.10243 5.45051,-1.32197 0.90613,-0.21954 2.29085,-0.7828 3.07715,-1.2517 l 1.42965,-0.85253 -3.3063,-0.44021 c -2.14663,-0.2858 -3.94651,-0.32316 -5.13157,-0.10651 -3.66288,0.66964 -8.35883,0.88105 -8.9357,0.40229 -1.49914,-1.24418 -0.18683,-2.70431 3.20443,-3.5654 1.32653,-0.33682 3.4204,-1.0809 4.65305,-1.65351 2.09975,-0.9754 4.74666,-2.12606 10.0853,-4.38427 4.54049,-1.9206 7.53242,-3.44916 8.2042,-4.19147 0.68884,-0.76115 0.68642,-0.7619 -2.44999,-0.75542 -5.95571,0.0123 -13.99204,2.44538 -21.62921,6.54846 -1.86832,1.00376 -3.64502,1.05116 -4.23222,0.11292 -0.63674,-1.01741 0.50562,-2.25151 5.24806,-5.66955 4.66774,-3.3642 10.34999,-8.72162 15.36784,-14.48931 1.67693,-1.92752 4.29768,-4.76115 5.82388,-6.29694 1.5262,-1.53579 2.71264,-2.8546 2.63655,-2.9307 -0.25398,-0.25398 -7.79308,4.12145 -12.31718,7.14845 -3.88781,2.60128 -6.06811,4.1871 -12.83193,9.33317 -1.3322,1.01357 -5.74312,4.8735 -13.12481,11.48532 -1.96118,1.75664 -3.91604,3.43752 -4.34414,3.73529 -0.42809,0.29777 -1.30349,0.98685 -1.94532,1.53128 l -1.16697,0.98987 1.12936,2.08513 c 1.73977,3.21215 2.57452,6.63075 2.57452,10.5436 v 3.40496 l 3.08162,0.2601 c 1.69489,0.14305 4.0061,0.49882 5.13603,0.79061 3.13557,0.80971 10.39458,0.50376 13.16691,-0.55496 z m -34.95845,-16.26898 1.3433,-0.56126 -0.17424,-3.00981 c -0.14059,-2.42866 -0.32815,-3.16372 -0.97138,-3.80696 -1.06288,-1.06287 -1.37175,-0.64327 -0.76388,1.03774 0.4734,1.30918 0.45046,1.4113 -0.50093,2.22965 -0.54839,0.4717 -1.18313,0.91966 -1.41055,0.99547 -0.28207,0.094 -0.20507,0.70017 0.24226,1.90713 0.36066,0.97312 0.70893,1.7693 0.77394,1.7693 0.065,0 0.72267,-0.25257 1.46148,-0.56126 z m 14.78243,73.39389 c -1.33683,-0.54978 -1.72728,-2.07232 -0.93687,-3.65332 0.73402,-1.46823 2.72125,-2.71759 3.85218,-2.42184 1.03791,0.27141 0.90675,0.727 -0.29517,1.02531 -1.50968,0.3747 -2.70809,1.6541 -2.70809,2.89112 0,1.3051 0.75865,1.65783 2.24314,1.04293 1.18511,-0.49088 1.17163,-1.11977 -0.024,-1.11977 -0.8413,0 -0.97058,-0.5729 -0.19632,-0.87001 0.93803,-0.35996 2.64631,0.31355 2.64631,1.04334 0,1.40271 -2.95279,2.73192 -4.58117,2.06224 z m 6.28971,-0.89489 c -0.24054,-0.28983 -0.5389,-1.15283 -0.66304,-1.91778 -0.28954,-1.78427 0.63324,-1.64953 1.10239,0.16097 0.49899,1.92567 1.16909,1.34026 2.00927,-1.75534 0.24349,-0.89714 0.88549,-0.0441 0.88549,1.17658 0,2.28855 -2.13304,3.78276 -3.33411,2.33557 z m 5.02866,0.0536 c -0.0796,-0.25323 -0.25496,-1.28154 -0.38977,-2.28513 l -0.2451,-1.82472 1.96773,0.18908 c 4.15013,0.39877 4.17871,3.36354 0.04,4.14831 -0.82067,0.15561 -1.27619,0.0801 -1.37285,-0.22754 z m 3.16133,-1.95111 c 0,-0.50227 -0.79427,-0.93725 -1.71144,-0.93725 -0.3375,0 -0.52974,0.3996 -0.52974,1.10116 0,1.0613 0.0406,1.08702 1.12059,0.71052 0.61632,-0.21485 1.12059,-0.60835 1.12059,-0.87443 z m 5.09475,2.16534 c -0.13138,-0.13137 -0.23887,-0.96724 -0.23887,-1.85749 0,-1.93898 0.4223,-2.02697 2.24118,-0.46701 l 1.30735,1.12125 0.11705,-1.13643 c 0.1576,-1.53015 1.04833,-1.45005 1.34302,0.12077 0.47969,2.55697 -0.52486,3.13762 -2.63878,1.52525 -1.17764,-0.89823 -1.24923,-0.91019 -1.24923,-0.20881 0,0.7956 -0.48855,1.29565 -0.88172,0.90247 z m 6.69811,-0.3278 c -0.68238,-0.68237 -0.74266,-1.41242 -0.20031,-2.42581 0.52577,-0.9824 2.57886,-0.96042 3.65172,0.0391 0.97362,0.90707 0.99107,1.06553 0.23602,2.14351 -0.69886,0.99776 -2.79465,1.13598 -3.68743,0.2432 z m 2.67868,-1.17351 c 0.15381,-0.46722 -1.63764,-1.11263 -2.02185,-0.72842 -0.11853,0.11853 -0.11145,0.48668 0.0157,0.81811 0.26366,0.68709 1.77261,0.61963 2.00612,-0.0897 z m -12.06744,0.49113 c -0.29521,-1.17621 -0.074,-2.6527 0.39737,-2.6527 0.20544,0 0.42476,0.79842 0.48738,1.77426 0.11978,1.86676 -0.48579,2.46801 -0.88475,0.87844 z m 2.91174,-4.0326 c 0.19343,-0.58026 3.59975,-0.68423 3.74225,-0.11422 0.0514,0.20544 -0.80622,0.42493 -1.90572,0.48775 -1.51524,0.0866 -1.95976,-0.004 -1.83653,-0.37353 z M 124.57206,203.77919 c -1.1072,-0.47254 -3.78617,-3.14538 -6.75938,-6.74391 -1.45758,-1.76412 -1.57771,-1.82999 -2.5389,-1.39204 -1.3361,0.60876 -3.69808,0.58324 -5.18798,-0.0561 -1.55594,-0.66764 -3.41603,-2.692 -3.95335,-4.30249 -0.53338,-1.59865 -0.5448,-5.7495 -0.021,-7.63582 0.35701,-1.28569 0.29736,-1.58769 -0.57346,-2.90359 -1.19613,-1.8075 -1.65187,-3.69235 -0.89277,-3.69235 0.95676,0 2.12145,1.10595 2.55813,2.4291 0.46657,1.41372 0.9183,1.60393 1.83786,0.7739 0.61648,-0.55647 1.66627,-0.74417 3.61511,-0.64638 1.83585,0.0921 4.25879,1.96907 5.45869,4.22863 l 1.05819,1.99269 -0.23046,-1.96103 c -0.21138,-1.7987 -0.16754,-1.96103 0.52961,-1.96103 1.00312,0 1.07474,0.14607 2.30918,4.70948 1.01949,3.76876 2.62985,7.24347 3.357,7.24347 0.45785,0 1.32804,-1.72985 1.67127,-3.32229 0.15029,-0.69732 0.29721,-3.6731 0.32648,-6.61282 0.0302,-3.03747 0.21667,-5.5084 0.43184,-5.72357 0.20824,-0.20824 0.74433,-0.28299 1.19132,-0.1661 0.65246,0.17063 0.92738,0.71672 1.39429,2.7696 0.66289,2.91449 0.76391,8.46166 0.19163,10.52225 -0.83986,3.02403 -3.17406,4.51133 -5.74734,3.66207 -1.65488,-0.54616 -3.77857,-2.90495 -4.35869,-4.84122 -0.53633,-1.79009 -1.08342,-1.98438 -1.08342,-0.38475 0,0.62292 -0.25387,1.74018 -0.56415,2.4828 l -0.56416,1.35021 3.95627,5.20646 c 2.17595,2.86355 3.90059,5.26194 3.83254,5.32975 -0.068,0.0678 -0.628,-0.0919 -1.24432,-0.35497 z m -12.04377,-9.19695 c 0.48298,-0.22006 1.08445,-0.73045 1.33659,-1.13419 0.53053,-0.84951 0.70031,-0.55752 -3.11341,-5.35422 l -2.61471,-3.28864 -0.11364,1.93504 c -0.15115,2.57357 0.83699,5.84793 2.16581,7.17675 1.21454,1.21454 1.16484,1.20041 2.33936,0.66526 z m 3.11045,-6.79033 c -0.29124,-2.69952 -1.76192,-6.02718 -3.03134,-6.85894 -0.7943,-0.52045 -1.00259,-0.51513 -2.20695,0.0564 -0.73142,0.34708 -1.32986,0.77407 -1.32986,0.94886 0,0.46465 6.10425,8.1461 6.49163,8.16891 0.18111,0.0107 0.21543,-1.02771 0.0765,-2.31521 z m -23.28468,13.83642 c -0.81909,-0.99107 -0.88765,-3.3551 -0.2645,-9.12133 0.40153,-3.71546 0.57037,-7.39336 0.45225,-9.85112 -0.10368,-2.15714 -0.11105,-4.13217 -0.0164,-4.38897 0.0947,-0.2568 0.64743,-0.46691 1.22837,-0.46691 1.18351,0 2.36029,1.19298 3.99321,4.04821 3.74149,6.54215 4.07191,6.97701 5.20312,6.84767 1.02947,-0.11769 1.04463,-0.0983 0.33805,0.43147 -0.7133,0.53485 -0.71672,0.59939 -0.0956,1.80411 0.35431,0.68718 1.33283,2.34199 2.17449,3.67736 0.84166,1.33537 1.80028,3.01625 2.13027,3.73529 0.33,0.71905 0.6696,1.44757 0.75467,1.61893 0.0851,0.17137 -0.23568,0.25542 -0.71279,0.18677 -0.62849,-0.0904 -1.67436,-1.30822 -3.79632,-4.4204 -1.61087,-2.36258 -3.05324,-4.42031 -3.20526,-4.57275 -0.15203,-0.15244 -1.61052,0.28398 -3.24108,0.96983 l -2.96467,1.24699 -0.44612,4.02546 c -0.45567,4.11177 -0.81316,5.09883 -1.53175,4.22939 z m 4.95035,-10.93585 c 1.23265,-0.50856 2.2112,-1.05406 2.17455,-1.21224 -0.0619,-0.26712 -3.36466,-5.93999 -4.19065,-7.19789 -0.25844,-0.39358 -0.37541,0.32883 -0.39312,2.42794 -0.0139,1.64353 -0.13121,3.8707 -0.26076,4.94926 -0.12955,1.07857 -0.0861,1.96026 0.0966,1.9593 0.1827,-0.001 1.3407,-0.41782 2.57335,-0.92637 z m 40.22704,2.95399 c -1.05503,-0.73897 -2.0308,-3.02379 -3.37598,-7.90504 -1.68163,-6.10214 -1.71568,-6.44732 -0.63605,-6.44732 0.4938,0 1.14725,0.24944 1.45211,0.55431 1.31291,1.3129 4.45468,13.67676 3.60831,14.19984 -0.13872,0.0857 -0.61049,-0.0951 -1.04839,-0.40179 z m 8.2801,-1.83912 c -0.33172,-0.86445 0.13489,-1.68088 0.96064,-1.68088 0.80003,0 1.70037,1.27196 1.32745,1.87536 -0.35385,0.57255 -2.04905,0.42846 -2.28809,-0.19448 z m 7.61566,-0.0707 c -0.99928,-0.26114 -0.80383,-1.49149 0.28014,-1.76355 1.18244,-0.29677 2.80147,0.0959 2.80147,0.67947 0,1.10166 -1.2848,1.55364 -3.08161,1.08408 z m 7.59289,-0.64149 c -0.60537,-0.72942 -0.28663,-1.20585 0.96709,-1.44551 1.28893,-0.2464 2.80154,0.43504 2.65724,1.19711 -0.15513,0.81922 -2.98937,1.01348 -3.62433,0.2484 z M 63.97427,179.11385 c -1.59132,-0.69179 -2.71229,-2.58393 -2.71405,-4.58116 -10e-4,-1.90216 1.35989,-3.5969 5.0904,-6.33603 2.55966,-1.87943 2.67696,-2.17694 2.13973,-5.42698 l -0.23084,-1.3965 -1.48988,1.48988 c -1.79211,1.79211 -2.81676,1.88377 -4.47771,0.40053 -1.20487,-1.07595 -1.22145,-1.13607 -1.34932,-4.89022 -0.12026,-3.53081 -0.0805,-3.79153 0.5603,-3.66939 0.59385,0.1132 0.72001,0.62433 0.90743,3.67625 0.199,3.24044 0.52034,4.85212 0.96743,4.85212 1.44023,0 3.85615,-3.61029 3.86078,-5.76946 0.002,-0.8329 0.10924,-2.39683 0.23879,-3.47539 0.18297,-1.52325 0.3805,-1.96103 0.88485,-1.96103 1.0345,0 1.36984,0.7513 1.6265,3.64408 0.27262,3.07264 1.34951,8.30886 1.70881,8.30886 0.13098,0 0.9653,-0.74092 1.85405,-1.64649 1.43053,-1.4576 1.62784,-1.86748 1.71984,-3.57271 0.0727,-1.34799 0.43048,-2.45155 1.19178,-3.6763 l 1.08783,-1.75009 2.16811,0.0114 c 1.88956,0.01 2.28053,0.14208 3.04315,1.02868 0.48127,0.55951 0.98791,1.61897 1.12587,2.35434 0.21677,1.15547 0.35853,1.30169 1.04385,1.07671 0.43617,-0.14318 1.4439,-0.34491 2.23942,-0.44828 1.92115,-0.24964 1.70256,0.39281 -0.76399,2.2455 l -1.88044,1.41246 -0.2249,3.06989 c -0.44833,6.11994 -1.788,8.44693 -4.60027,7.99056 -2.67786,-0.43456 -3.05139,-0.96597 -4.58115,-6.51737 l -0.23414,-0.84966 -1.24427,1.03877 -1.24427,1.03876 -0.06,3.92899 c -0.0572,3.74253 -0.11724,4.01815 -1.26612,5.80781 -1.83517,2.85876 -4.36119,3.78107 -7.09756,2.59149 z m 4.06021,-4.47278 c 1.01941,-2.15481 1.47709,-5.43225 0.75858,-5.43225 -0.17043,0 -1.36547,0.95526 -2.65565,2.12281 l -2.34578,2.12281 0.17169,1.78686 c 0.0944,0.98277 0.38041,2.03834 0.6355,2.34571 0.75217,0.9063 2.20091,-0.33594 3.43566,-2.94594 z m 12.11134,-5.61827 c 0.30026,-0.71863 0.65059,-2.54463 0.77849,-4.05778 l 0.23256,-2.75117 -1.3642,-0.25593 c -0.75031,-0.14076 -1.55053,-0.14077 -1.77827,-1e-5 -0.84641,0.52311 0.42917,8.3715 1.3606,8.3715 0.12369,0 0.47055,-0.58797 0.77082,-1.30661 z m 0.18756,-8.79183 c 0.58625,-0.31375 0.7225,-0.7934 0.7225,-2.54331 0,-1.29134 -0.21564,-2.44756 -0.53746,-2.88171 -0.49792,-0.67172 -0.58313,-0.68011 -1.15808,-0.11395 -0.44598,0.43916 -0.64101,1.35882 -0.69313,3.26838 -0.0767,2.80905 0.13108,3.09215 1.66617,2.27059 z m 52.12276,14.36347 c -0.1247,-0.32496 -0.22673,-1.18753 -0.22673,-1.91683 v -1.32598 l 1.52497,0.20454 c 0.83873,0.1125 1.61604,0.29562 1.72736,0.40694 0.11132,0.11131 -0.23874,0.72665 -0.77791,1.36742 -0.53917,0.64076 -0.9803,1.32021 -0.9803,1.50989 0,0.58143 -1.02632,0.38224 -1.26739,-0.24598 z m -25.03889,-3.61136 c -0.30249,-0.46224 -1.23893,-2.31121 -2.08099,-4.10882 -0.84206,-1.79761 -1.57704,-3.26838 -1.63327,-3.26838 -0.0562,0 -0.8886,0.26793 -1.84968,0.5954 l -1.74743,0.59541 v 2.79117 2.79117 l -1.0272,-0.11819 -1.02721,-0.1182 -0.0997,-9.61838 -0.0997,-9.61838 h 1.10788 c 1.44016,0 2.38292,1.28812 4.51081,6.16323 1.94891,4.46506 2.14258,4.74976 3.03783,4.46562 0.8495,-0.26962 0.93438,0.40498 0.0917,0.72837 -0.68346,0.26227 -0.71384,0.12177 1.13228,5.23696 0.73592,2.03908 1.33804,3.84603 1.33804,4.01544 0,0.63747 -1.12481,0.27525 -1.65334,-0.53242 z m -5.49946,-8.1608 c 0.64698,-0.22554 1.17633,-0.52984 1.17633,-0.67623 0,-0.38553 -1.69571,-4.65401 -2.18058,-5.48902 -0.34443,-0.59316 -0.41379,-0.43486 -0.42602,0.97238 -0.008,0.92448 -0.1206,2.56334 -0.25015,3.64191 -0.25519,2.12456 -0.17564,2.19798 1.68042,1.55096 z m 10.35633,6.41807 c -0.90157,-0.99623 -2.78074,-7.02467 -3.27154,-10.49521 l -0.40893,-2.89168 -1.90933,0.0475 c -2.43994,0.0607 -2.58564,-0.75891 -0.32182,-1.81045 1.39451,-0.64775 1.5875,-0.88615 1.5875,-1.96103 0,-1.49109 0.48223,-1.54787 1.72815,-0.20351 0.9771,1.0543 1.40727,1.11061 4.71523,0.61724 2.26778,-0.33823 1.64884,0.50346 -0.93382,1.26988 -2.05772,0.61065 -2.32992,0.80049 -2.29548,1.60087 0.059,1.37171 0.84389,5.77194 1.62774,9.12571 1.22497,5.24117 1.24635,5.41617 0.66193,5.41617 -0.29264,0 -0.82348,-0.32199 -1.17963,-0.71553 z m 40.92036,-1.41735 c -0.85082,-0.69437 -2.29292,-5.24852 -3.04968,-9.63089 -1.21966,-7.06301 -2.97421,-13.38856 -2.97421,-10.7227 0,0.96099 -0.4582,1.0596 -1.13491,0.24422 -1.08299,-1.30493 2.81969,-4.28237 5.60303,-4.27469 2.7489,0.008 7.26145,3.13019 8.03201,5.558 0.331,1.04288 0.94559,1.00925 0.95203,-0.0521 0.0106,-1.74847 0.42834,-2.52132 1.3628,-2.52132 1.28529,0 2.48285,1.35533 3.91647,4.43242 0.89634,1.92389 1.4374,2.66464 1.94633,2.66464 0.57642,0 0.6222,0.0996 0.25118,0.54669 -0.36533,0.44019 -0.15004,1.35028 1.10512,4.67168 0.85736,2.26874 1.50319,4.27148 1.43518,4.45052 -0.068,0.17905 -0.47633,0.19276 -0.90737,0.0304 -0.60274,-0.22694 -3.35348,-4.97632 -4.48883,-7.75033 -0.0237,-0.058 -0.8482,0.10994 -1.83216,0.37311 -1.99939,0.53475 -2.19369,0.83802 -3.35844,5.24184 -0.40735,1.54018 -0.86331,2.52132 -1.1717,2.52132 -0.67166,0 -0.65356,-1.95149 0.0554,-5.97647 0.30761,-1.74625 0.55951,-3.30536 0.55979,-3.46468 2.8e-4,-0.15933 -1.07435,0.62213 -2.38806,1.73659 -1.31371,1.11446 -2.76287,2.14509 -3.22035,2.29028 -0.9271,0.29425 -0.92741,0.28357 0.19366,6.51219 0.31206,1.73378 0.4244,3.2953 0.24965,3.47006 -0.17476,0.17475 -0.68639,0.0169 -1.13697,-0.35085 z m 1.88337,-12.83883 c 1.90048,-2.02426 2.42762,-3.51613 2.0546,-5.81477 -0.2654,-1.6355 -1.77723,-3.6712 -3.31829,-4.4681 -1.24684,-0.64477 -3.08703,-0.35617 -4.54998,0.71356 -0.66712,0.48781 -0.65953,0.54157 0.19938,1.41157 0.65444,0.6629 1.1849,2.12645 1.98628,5.48018 0.60136,2.51666 1.2627,4.57574 1.46965,4.57574 0.20694,0 1.17821,-0.85418 2.15836,-1.89818 z m 8.77178,-0.57744 c 0.50677,-0.12719 0.84577,-0.42063 0.75334,-0.65209 -1.15645,-2.89579 -1.49385,-3.59582 -1.73314,-3.59582 -0.24355,0 -1.13159,3.59786 -1.13159,4.58461 0,0.19316 0.26774,0.24845 0.59499,0.12288 0.32725,-0.12558 1.00963,-0.33239 1.5164,-0.45958 z M 121.739,167.43248 c -0.32553,-0.0673 -0.87977,-0.72599 -1.23163,-1.46386 -0.70182,-1.47172 -2.84561,-9.89359 -2.84561,-11.17896 0,-0.44224 -0.25213,-1.01332 -0.56029,-1.26908 -1.29265,-1.0728 -0.26301,-4.41095 1.66866,-5.40985 1.5631,-0.80831 3.04099,-0.7044 5.51113,0.38751 4.74549,2.0977 6.55187,5.59099 5.20459,10.06499 -0.17761,0.5898 0.29742,1.17951 2.25672,2.80147 2.64841,2.19243 4.90379,4.93994 4.23744,5.16206 -0.22099,0.0737 -2.06355,-1.30501 -4.09457,-3.06371 l -3.69276,-3.19764 -1.19134,0.59431 c -1.18853,0.59293 -3.45472,0.55728 -5.01545,-0.0789 -0.58621,-0.23894 -0.67177,-0.17104 -0.46464,0.36873 0.34494,0.89891 1.0856,5.75688 0.93253,6.11648 -0.0676,0.1588 -0.38924,0.2337 -0.71478,0.16644 z m 3.21859,-7.7296 c 1.59801,-0.66769 1.6327,-1.13278 0.14197,-1.90367 -1.07686,-0.55686 -1.18758,-0.5513 -1.669,0.0838 -0.6067,0.80038 -0.7084,2.36111 -0.15386,2.36111 0.21204,0 0.96844,-0.24355 1.68089,-0.54123 z m -2.75129,-3.15841 c 0.85011,-0.42733 1.25713,-0.41169 2.77859,0.10672 2.03754,0.69426 2.37346,0.47463 2.38292,-1.55799 0.0107,-2.29211 -2.32356,-5.55838 -4.45595,-6.23517 -0.76837,-0.24387 -2.5792,0.5197 -3.3042,1.39328 -0.32343,0.3897 -0.29657,0.96464 0.11018,2.35918 0.2958,1.01416 0.63619,2.48504 0.75642,3.26864 0.12022,0.7836 0.33502,1.36651 0.47731,1.29537 0.1423,-0.0711 0.70693,-0.35466 1.25473,-0.63003 z m 24.9695,8.93637 c -0.436,-0.6123 -1.55071,-2.7134 -2.47714,-4.66911 -1.82235,-3.84702 -2.01235,-3.97618 -4.24287,-2.88423 -1.42771,0.69892 -1.61803,1.13726 -2.26275,5.21147 -0.43787,2.76709 -0.9038,3.29368 -1.87685,2.12122 -0.39703,-0.47839 -0.40467,-1.73837 -0.0413,-6.81691 0.24515,-3.42652 0.44374,-7.86891 0.44132,-9.87196 -0.005,-3.94051 0.0916,-4.09272 2.03177,-3.20873 1.08335,0.49361 2.42858,2.49331 4.69166,6.97425 1.42645,2.82438 1.65412,3.09114 2.46454,2.88774 0.49111,-0.12326 0.89292,-0.0724 0.89292,0.11297 0,0.18539 -0.32466,0.42198 -0.72147,0.52575 -0.67455,0.1764 -0.6149,0.44654 0.91718,4.15389 1.96316,4.75047 2.3942,6.57692 1.55218,6.57692 -0.31704,0 -0.93316,-0.50097 -1.36915,-1.11327 z m -6.18602,-9.03198 c 0.52327,-0.23842 0.95126,-0.61661 0.9511,-0.84044 -1.6e-4,-0.22382 -0.53791,-1.49953 -1.19501,-2.83489 -1.31323,-2.66881 -1.30218,-2.68187 -1.50165,1.77494 -0.11229,2.50903 0.0417,2.67671 1.74556,1.90039 z m 33.57525,7.49484 c -1.11315,-0.32235 -1.20368,-0.48574 -1.58522,-2.86117 -0.22256,-1.38561 -0.57381,-4.36827 -0.78056,-6.62812 -0.20675,-2.25985 -0.47869,-4.92908 -0.60431,-5.93161 l -0.22839,-1.82278 1.2557,0.26417 c 0.69063,0.1453 2.70716,0.23791 4.48118,0.20581 6.18368,-0.11188 8.50224,2.29749 6.85599,7.12449 -0.88879,2.606 -6.856,10.15122 -7.9282,10.02476 -0.1571,-0.0185 -0.81688,-0.18753 -1.46619,-0.37555 z m 4.62343,-7.4433 c 1.3972,-2.06099 2.34683,-4.26529 2.34683,-5.44748 0,-0.48527 -0.47832,-1.41765 -1.06293,-2.07194 l -1.06293,-1.18963 -2.17431,0.43667 c -1.19587,0.24016 -2.26352,0.52587 -2.37255,0.6349 -0.10902,0.10902 0.0823,1.91597 0.42527,4.01544 0.34293,2.09947 0.73011,4.60734 0.86042,5.57303 l 0.23691,1.75581 0.82904,-1.00875 c 0.45597,-0.55481 1.34438,-1.76893 1.97425,-2.69805 z m 9.66462,3.19061 c -2.85366,-1.01687 -3.69214,-2.85 -3.32216,-7.26312 0.16791,-2.00279 0.0918,-2.56885 -0.40003,-2.97707 -0.90832,-0.75383 -0.73698,-1.83455 0.4845,-3.05603 1.48458,-1.48458 3.86696,-1.48672 6.72735,-0.006 l 2.0295,1.05058 4.50726,-2.18704 c 4.91418,-2.38448 6.84274,-2.88247 4.88079,-1.26031 -0.61632,0.50958 -2.65137,1.85115 -4.52235,2.98125 l -3.40175,2.05474 0.49244,1.89841 c 0.27084,1.04413 0.38904,2.43316 0.26266,3.08675 -0.34694,1.79424 -2.18516,4.23173 -3.98823,5.28839 -1.84893,1.08355 -1.81277,1.07979 -3.74998,0.38949 z m 1.87669,-1.77268 c 2.3153,-1.78693 3.70679,-4.51514 3.32927,-6.52749 -0.24103,-1.28478 -0.26761,-1.30129 -1.62189,-1.00688 -0.75727,0.16463 -2.04921,0.31404 -2.87097,0.33202 l -1.49412,0.0327 0.0618,2.97346 c 0.0614,2.95535 0.55025,5.02786 1.18598,5.02786 0.18282,0 0.81731,-0.37425 1.40998,-0.83167 z m 1.11085,-9.33675 c 1.19622,-0.54503 1.13821,-0.82966 -0.3575,-1.75406 -1.57923,-0.97602 -2.49105,-0.98123 -3.71151,-0.0212 l -0.96148,0.7563 0.81773,0.90001 c 0.86927,0.95673 2.28625,0.99675 4.21276,0.11897 z m -102.0068,1.41486 c -0.20544,-0.0802 -0.82457,-0.24494 -1.37584,-0.36611 -1.06526,-0.23414 -1.59542,-1.20911 -1.20737,-2.22036 0.31961,-0.83288 0.90233,-0.77579 0.90233,0.0884 0,0.38573 0.26218,0.91891 0.58261,1.18485 1.50413,1.24831 4.27327,-1.50132 4.27327,-4.24315 0,-2.72624 -3.43572,-7.48379 -7.49551,-10.37927 -6.59512,-4.7037 -6.88026,-4.95745 -7.00315,-6.23219 -0.15167,-1.57332 0.94384,-3.35163 3.21798,-5.22365 3.6079,-2.96993 5.21679,-3.58608 6.63356,-2.54041 0.58114,0.42892 0.63238,0.62911 0.25815,1.00853 -0.34918,0.35402 -0.46691,0.36036 -0.46691,0.0251 0,-1.02583 -1.15206,-0.28277 -3.83318,2.47234 -4.3261,4.44548 -4.26817,5.28156 0.58307,8.41624 6.16738,3.9851 10.66752,8.52862 11.50954,11.62048 0.86147,3.16325 -1.13319,6.0703 -4.36848,6.3667 -1.0101,0.0925 -2.00463,0.10264 -2.21007,0.0225 z m 78.102,-6.20757 c -1.25393,-1.10096 -5.0616,-6.90343 -6.42357,-9.78882 -0.60647,-1.28483 -0.76307,-1.38557 -1.83986,-1.18356 -1.63914,0.30751 -4.27701,-0.4685 -5.48949,-1.6149 -2.12562,-2.00976 -2.2435,-5.48142 -0.37422,-11.02197 l 0.97783,-2.89832 -0.85435,-1.95756 c -1.32971,-3.04672 -1.35875,-3.26492 -0.43447,-3.26492 0.62068,0 1.033,0.48428 1.75496,2.06125 l 0.94367,2.06125 1.05318,-1.12742 c 0.57924,-0.62009 1.41135,-1.12743 1.84913,-1.12743 1.28422,0 3.20164,0.9543 4.02787,2.00468 1.79979,2.28807 2.0171,9.65271 0.39601,13.42103 l -0.78542,1.82575 1.03199,2.11324 c 0.5676,1.16228 2.1498,3.95908 3.51602,6.21511 1.36621,2.25604 2.60467,4.39916 2.75213,4.7625 0.42576,1.04908 -0.63621,0.80656 -2.10141,-0.47991 z m -8.76242,-13.20062 c 0.42423,-0.93109 0.48344,-0.71399 -1.97178,-7.22983 -0.48376,-1.28383 -0.99371,-2.33438 -1.13322,-2.33456 -0.50411,-7.5e-4 -1.13808,4.33145 -0.95948,6.55642 0.24982,3.11219 0.72651,3.90207 2.35488,3.90207 1.01112,0 1.39328,-0.19986 1.7096,-0.8941 z m 2.5276,-8.33237 c 0.0385,-3.17019 -0.51478,-6.67066 -1.11285,-7.04029 -0.409,-0.25277 -2.95439,2.42555 -2.95695,3.11137 -0.001,0.26314 0.78915,2.36383 1.75585,4.66819 1.99823,4.76326 2.24804,4.68346 2.31395,-0.73927 z m -60.70314,21.76479 c -1.53878,-0.66979 -2.55642,-1.79812 -4.06527,-4.50744 -1.97034,-3.538 -2.94487,-7.25973 -2.69169,-10.27958 0.31162,-3.71704 1.61053,-6.7225 3.29588,-7.62617 1.32185,-0.70875 1.38593,-0.70935 3.16625,-0.0294 1.08058,0.41268 2.51971,1.41531 3.55057,2.47365 l 1.73348,1.7797 1.3499,-2.87658 c 0.74244,-1.58213 1.50003,-3.68019 1.68351,-4.66236 0.1835,-0.98218 0.43008,-1.88224 0.54798,-2.00013 0.33746,-0.33747 2.74998,0.21896 3.14623,0.72565 0.19658,0.25137 0.55934,3.6507 0.80614,7.55409 0.46891,7.41635 1.15228,11.73341 2.21332,13.98227 l 0.62866,1.33243 2.89065,-0.13192 c 1.82958,-0.0835 2.89065,0.0101 2.89065,0.25497 0,0.2128 -0.29416,0.4643 -0.65368,0.5589 -0.35952,0.0946 -1.44568,0.37811 -2.41368,0.63002 -1.06377,0.27683 -2.45459,0.35385 -3.51587,0.19471 -3.36928,-0.50526 -4.5584,-2.7936 -5.71387,-10.99578 l -0.60007,-4.25969 -0.97594,1.27952 -0.97594,1.27952 0.54886,2.60664 c 1.03621,4.92122 0.0207,10.65079 -2.21886,12.51845 -0.99852,0.83272 -2.97538,0.91756 -4.62721,0.19857 z m 2.31019,-2.54641 c 0.47096,-1.11825 0.71584,-2.89982 0.82846,-6.02721 l 0.15988,-4.43972 -1.06805,0.32106 c -1.37265,0.41262 -4.60437,0.41241 -5.48334,-3.6e-4 -0.61671,-0.28962 -0.65489,-0.18433 -0.41026,1.13146 0.70848,3.81069 3.8903,10.60227 4.96712,10.60227 0.18569,0 0.63847,-0.71437 1.00619,-1.5875 z m 0.1596,-12.98705 c 0,-0.75585 -1.97334,-4.44452 -2.78627,-5.20822 -0.78535,-0.73781 -1.01778,-0.79576 -1.51995,-0.37899 -2.0563,1.70657 -2.37963,7.23915 -0.46414,7.942 0.51938,0.19058 4.77036,-1.90783 4.77036,-2.35479 z m -49.83682,14.61327 c 1.46402,-0.66492 3.14564,-2.34068 3.14564,-3.13467 0,-0.20927 -0.43009,-1.28963 -0.95576,-2.4008 -0.57103,-1.20706 -0.90934,-2.49962 -0.84044,-3.21104 0.10746,-1.10956 0.22212,-1.1985 1.68182,-1.30457 2.0016,-0.14545 3.75871,0.74194 4.09106,2.06611 0.15211,0.60605 0.006,1.69805 -0.36812,2.75143 -0.836,2.3538 -0.7949,2.58012 0.46852,2.58012 0.82716,0 1.45556,-0.41661 2.6147,-1.73348 0.83923,-0.9534 1.52587,-2.03708 1.52587,-2.40817 0,-0.37109 -0.40566,-1.43765 -0.90147,-2.37013 -0.59102,-1.11157 -0.99184,-2.65988 -1.1639,-4.49607 -0.48923,-5.22073 0.51513,-7.96219 2.72473,-7.43738 3.57699,0.84957 5.06168,6.44256 3.16112,11.90831 l -0.77925,2.24102 1.45817,1.89005 c 0.80199,1.03953 2.23543,2.67846 3.18543,3.64207 1.3814,1.4012 1.58072,1.75201 0.9954,1.75201 -1.0113,0 -3.048,-1.44733 -4.96826,-3.53056 l -1.61394,-1.75092 -1.1424,1.35441 c -1.31589,1.56009 -3.09581,2.11419 -5.42386,1.68848 -1.30134,-0.23797 -1.61266,-0.16656 -2.06033,0.47258 -0.97932,1.39817 -2.53333,2.13489 -4.49056,2.12888 l -1.86765,-0.006 1.52348,-0.69193 z m 4.84199,-6.15303 c 0.3678,-1.96055 0.0975,-3.03716 -0.76253,-3.03716 -0.92944,0 -1.15214,1.1949 -0.55815,2.99472 0.54201,1.6423 1.01767,1.65759 1.32068,0.0425 z m 8.65167,-8.19435 c 0.15285,-2.03417 0.0491,-3.04991 -0.42688,-4.18104 -0.56848,-1.35082 -0.66743,-1.42564 -1.03174,-0.78003 -0.4177,0.7402 -0.18907,6.94026 0.30323,8.22317 0.43823,1.14201 0.92844,-0.24205 1.15539,-3.2621 z m 66.97257,12.46722 c -3.01361,-0.6026 -4.43275,-2.20849 -3.75811,-4.25266 0.51472,-1.55961 1.47612,-2.47389 4.13164,-3.92913 l 2.05441,-1.12584 0.1109,-2.7003 c 0.12548,-3.05534 -0.25638,-3.83493 -1.18457,-2.41834 -1.1919,1.81906 -4.63705,0.76065 -5.63395,-1.73085 -0.93238,-2.33026 -0.61813,-5.53379 0.54284,-5.53379 0.54367,0 0.6949,0.49017 0.90921,2.94703 0.26199,3.00333 0.87337,4.4785 1.65571,3.99499 0.73548,-0.45455 1.80307,-2.88068 2.68714,-6.10657 0.65456,-2.38844 0.99222,-3.07663 1.50957,-3.07663 1.02356,0 1.19834,0.60358 1.11272,3.84261 -0.0435,1.64586 0.12138,4.45951 0.36641,6.25255 l 0.44551,3.26007 2.73021,-1.26144 c 2.76329,-1.27672 4.05492,-1.54345 4.4419,-0.91731 0.20825,0.33697 -2.58341,2.17481 -5.61872,3.69898 l -1.52807,0.76731 0.31276,2.17053 c 0.47076,3.26704 0.10191,4.88529 -1.3097,5.74603 -1.23001,0.75001 -1.81635,0.80496 -3.97781,0.37276 z m 2.31327,-1.42694 c 0.90662,-1.05561 1.09857,-1.99052 0.83757,-4.07943 l -0.24571,-1.96663 -1.01355,0.52413 c -0.55745,0.28826 -1.54728,1.0227 -2.19962,1.63208 -1.98712,1.85625 -1.38154,4.54353 1.02389,4.54353 0.5698,0 1.28865,-0.29416 1.59742,-0.65368 z m 51.97706,-7.93613 c -0.48477,-0.19553 -0.8936,-0.78076 -1.02721,-1.47044 -0.12207,-0.6301 -0.31934,-1.6499 -0.43839,-2.26623 -0.25835,-1.33755 -0.61832,-1.41877 -1.2292,-0.27733 -0.68912,1.28763 -2.73783,2.51919 -4.18041,2.51301 -4.45857,-0.0191 -5.27624,-5.06676 -1.61367,-9.96149 1.02623,-1.37147 1.08299,-1.61242 0.37981,-1.61242 -1.03457,0 -2.47832,-1.5223 -2.47832,-2.61316 0,-1.63434 1.64923,-3.36331 3.2082,-3.36331 0.70079,0 1.26948,0.12607 1.26376,0.28015 -0.006,0.15408 -0.50998,0.94042 -1.12059,1.74742 -1.69268,2.23711 -1.42646,3.22196 1.01179,3.74301 2.03668,0.43524 2.12375,0.97761 0.50316,3.13441 -0.94366,1.2559 -1.54843,2.52515 -1.707,3.5826 -0.23343,1.55662 0.0419,3.9477 0.45461,3.9477 0.3468,0 2.52293,-1.588 3.75895,-2.74305 l 1.20965,-1.13041 -0.24238,-7.2369 -0.24236,-7.23689 1.08713,0.25269 c 0.59793,0.13898 1.62858,0.56065 2.29035,0.93703 0.66177,0.3764 1.82005,0.80007 2.57397,0.9415 3.91221,0.73394 5.93533,2.0348 6.57282,4.22628 0.37095,1.27522 -1.4089,5.38794 -4.22442,9.76141 -3.40242,5.28513 -3.83123,5.64266 -5.81025,4.84442 z m 3.69302,-6.44475 c 2.93516,-5.03069 3.8008,-7.81478 3.04344,-9.78842 -0.29089,-0.75806 -1.77366,-1.52132 -3.59664,-1.85138 l -1.40074,-0.25361 v 7.11398 c 0,3.91269 0.13316,7.11399 0.29592,7.11399 0.16276,0 0.90886,-1.05056 1.65802,-2.33456 z m -23.43188,4.53382 c -1.21083,-0.59139 -2.44804,-2.84849 -2.86788,-5.232 -0.47879,-2.71813 -0.10173,-6.90811 0.64755,-7.19564 0.7027,-0.26965 1.28651,0.89581 1.28651,2.5683 0,2.16628 0.78291,6.63573 1.35816,7.75346 1.39931,2.71887 2.43151,-0.10753 2.71691,-7.43947 0.12128,-3.11586 0.33933,-5.78401 0.48455,-5.92923 0.61476,-0.61475 1.42612,0.30547 1.99514,2.26282 0.73395,2.5247 0.85437,9.1863 0.19569,10.82573 -0.79125,1.96942 -1.85792,2.80424 -3.54718,2.77619 -0.83732,-0.0139 -1.85857,-0.18948 -2.26945,-0.39016 z m 39.25273,-2.29265 c -0.29996,-0.46224 -0.83631,-1.89336 -1.1919,-3.18027 -0.71645,-2.59285 -0.57834,-2.54936 -3.70431,-1.16659 -1.51875,0.67181 -1.64952,0.84846 -2.04755,2.76571 -0.37608,1.81161 -0.53128,2.04806 -1.34423,2.04806 -1.27938,0 -1.39132,-0.59475 -0.70943,-3.76961 0.32688,-1.52193 0.83387,-4.11186 1.12666,-5.75538 0.94732,-5.31766 1.79234,-8.47274 2.32387,-8.67671 1.09335,-0.41956 2.38165,0.64762 3.30657,2.73901 1.28704,2.91024 3.7853,11.32719 4.09298,13.78977 0.23851,1.90896 0.20318,2.04645 -0.5258,2.04645 -0.42982,0 -1.0269,-0.37819 -1.32686,-0.84044 z m -3.56708,-6.11887 c 1.14237,-0.45709 1.46308,-0.76038 1.28366,-1.21397 -0.13154,-0.33256 -0.50139,-1.65521 -0.82188,-2.93922 -0.3205,-1.284 -0.72665,-2.33455 -0.90257,-2.33455 -0.17592,0 -0.31986,0.0731 -0.31986,0.16234 0,0.2976 -1.13675,5.61742 -1.34214,6.28104 -0.25115,0.81145 0.16375,0.82021 2.10279,0.0444 z m 8.50343,4.99829 c -0.79661,-0.62991 -1.24548,-2.18318 -2.3323,-8.07054 -0.63944,-3.46384 -1.11434,-5.1303 -1.55351,-5.45144 -0.83839,-0.61304 -0.50359,-1.86198 0.97879,-3.65129 1.87999,-2.26924 4.97747,-2.65485 8.21059,-1.02214 3.289,1.66092 4.5113,5.00091 3.18828,8.71212 -0.51273,1.43823 -0.50949,1.44825 1.10718,3.43309 l 1.6214,1.99064 0.22558,-2.87279 c 0.33321,-4.24357 1.29393,-11.13859 1.70129,-12.21002 0.65401,-1.72018 2.81034,-0.86613 4.07575,1.61428 0.38698,0.75855 1.38728,4.15123 2.22289,7.53929 1.85338,7.51475 2.16414,9.33512 1.5936,9.33512 -0.90098,0 -1.91911,-1.57885 -2.69988,-4.18677 -0.44845,-1.49794 -0.84827,-2.76622 -0.88849,-2.81839 -0.0402,-0.0522 -0.7269,0.13147 -1.52595,0.40811 -1.63828,0.56719 -1.93513,1.202 -1.99324,4.26249 -0.0346,1.82438 -0.10129,1.96103 -0.95651,1.96103 -1.00848,0 -1.81122,-0.72663 -3.92072,-3.54897 -1.63349,-2.1855 -2.46947,-2.9447 -2.92943,-2.66043 -0.66664,0.41201 -3.01889,-0.55975 -4.14632,-1.71292 -1.63221,-1.66946 -1.54837,-2.54019 0.24295,-2.52327 0.7704,0.007 1.82095,0.25346 2.33456,0.54706 1.65018,0.94333 1.86764,0.74187 1.86764,-1.73018 0,-2.69186 -0.89543,-4.46797 -2.61075,-5.17848 -1.39783,-0.579 -2.47048,-0.31121 -4.04969,1.011 l -1.24427,1.04178 0.9766,3.85223 c 0.82132,3.23967 2.04131,10.28617 2.06539,11.92939 0.004,0.2568 -0.21316,0.46691 -0.48206,0.46691 -0.2689,0 -0.75461,-0.21011 -1.07937,-0.46691 z m 5.15461,-8.55898 c 0.27351,-0.44254 -1.43065,-2.18 -2.13822,-2.18 -0.41932,0 -0.0858,1.40186 0.51098,2.1478 0.46913,0.58638 1.27489,0.60233 1.62724,0.0322 z m 11.81865,-0.25322 c 0.16522,-0.16521 0.0632,-0.87644 -0.22668,-1.58049 -0.2899,-0.70406 -0.6447,-1.99448 -0.78847,-2.86761 -0.34425,-2.09074 -0.79956,-2.01352 -1.10114,0.18677 -0.13374,0.97584 -0.34384,2.51423 -0.46688,3.41864 l -0.2237,1.64438 1.25324,-0.25065 c 0.68928,-0.13786 1.38841,-0.38582 1.55363,-0.55104 z m -162.0811,-2.76722 c -0.45117,-0.71005 -1.93547,-5.39511 -2.57391,-8.12426 -0.31238,-1.33537 -0.98956,-3.74991 -1.50484,-5.36565 -0.51528,-1.615743 -0.85193,-3.022657 -0.74811,-3.126479 0.10383,-0.103823 0.60768,-0.08363 1.11968,0.04488 0.65474,0.164327 1.82218,1.535086 3.93527,4.620593 2.94661,4.30262 7.04592,9.25622 7.38188,8.92026 0.0935,-0.0936 -0.33846,-1.65609 -0.96002,-3.47229 -1.15021,-3.36089 -3.78266,-12.778982 -3.78266,-13.533164 0,-0.956941 1.16526,-0.297516 2.24345,1.26957 1.13602,1.65115 1.90351,3.541201 3.41144,8.401104 0.41434,1.33537 1.2445,3.98477 1.84481,5.88756 0.60031,1.90278 1.09148,3.70973 1.09148,4.01544 0,0.85945 -2.32597,0.69665 -3.59154,-0.25137 -1.8788,-1.40739 -5.37717,-4.91776 -6.75119,-6.77433 -0.72935,-0.9855 -1.3955,-1.7224 -1.48035,-1.63756 -0.0848,0.0848 0.27145,2.12325 0.79176,4.52979 0.52031,2.40655 0.94602,4.53017 0.94602,4.71918 0,0.50916 -1.03009,0.41669 -1.37317,-0.12327 z m 31.17437,-0.9088 c -0.85555,-0.2247 -0.96815,-1.16214 -1.22561,-10.2037 -0.11993,-4.211541 -0.39022,-9.338232 -0.60066,-11.392644 -0.21043,-2.054411 -0.41364,-4.07147 -0.45156,-4.482352 -0.0479,-0.519143 0.12756,-0.714241 0.57518,-0.639494 0.35428,0.05916 1.44552,-0.319035 2.42497,-0.840441 3.09812,-1.649256 7.23809,-1.138409 9.00788,1.111515 1.84925,2.350938 0.4775,7.482014 -2.80622,10.496804 l -1.71237,1.572125 1.53813,0.784697 c 0.84597,0.43158 1.8275,1.22633 2.18118,1.7661 1.56839,2.39367 -0.0478,6.72624 -3.73656,10.01691 -2.30302,2.05448 -3.14626,2.34839 -5.19436,1.81048 z m 4.07098,-5.18921 c 1.09587,-1.65049 1.41519,-2.53096 1.53907,-4.24366 0.14242,-1.96888 0.0613,-2.26296 -0.91202,-3.3067 -0.58759,-0.6301 -1.63644,-1.25992 -2.33078,-1.399614 l -1.26242,-0.253981 0.21828,1.627825 c 0.12006,0.8953 0.33003,3.43477 0.4666,5.64326 0.13658,2.20849 0.39462,4.01544 0.57342,4.01544 0.17881,0 0.94734,-0.93716 1.70785,-2.08257 z m -0.49938,-11.719336 c 0.58437,-0.523879 1.56646,-1.945087 2.18242,-3.158239 1.30339,-2.567093 1.49332,-4.907168 0.51899,-6.394189 -0.74194,-1.132339 -1.20695,-1.094766 -4.50565,0.364075 -1.94614,0.860679 -2.01197,0.936752 -1.71289,1.979583 0.17107,0.596478 0.52368,2.878739 0.78357,5.071696 0.51949,4.383435 0.36367,4.261612 2.73356,2.137074 z M 81.21218,109.82928 c -1.33991,-0.54206 -2.72209,-2.56516 -3.52212,-5.15537 -0.42382,-1.37215 -1.13678,-2.88463 -1.58437,-3.36107 -0.9547,-1.01623 -1.01938,-3.766773 -0.12083,-5.138141 1.0676,-1.629358 4.07479,-1.397191 6.80203,0.525145 l 1.59512,1.124346 1.18201,-1.104157 c 1.26566,-1.18231 2.60606,-1.686724 3.53497,-1.330265 0.5075,0.194743 0.51129,0.340438 0.0327,1.254252 -0.29782,0.568657 -1.15205,1.620845 -1.89828,2.338197 -1.25656,1.207923 -1.33708,1.414893 -1.08982,2.801473 0.59632,3.34408 -0.11623,7.20749 -1.49792,8.12162 -0.54675,0.36172 -2.45589,0.31945 -3.43349,-0.076 z m 1.63631,-2.37272 c 0.24671,-0.68227 0.44857,-2.129 0.44857,-3.21496 0,-1.73182 -0.0803,-1.94208 -0.65368,-1.71094 -0.35952,0.14494 -1.28813,0.3537 -2.06358,0.46391 -1.22734,0.17442 -1.37876,0.30267 -1.16938,0.9904 0.55515,1.8234 2.10697,4.71209 2.53137,4.71209 0.25197,0 0.65999,-0.55823 0.9067,-1.2405 z M 80.91841,101.196 c 1.61872,-1.00042 1.59346,-1.837303 -0.11242,-3.725516 l -1.37048,-1.516959 -0.8986,0.898596 c -0.52744,0.527442 -0.9817,1.518255 -1.09982,2.398854 -0.17092,1.274365 -0.0699,1.592275 0.67131,2.111405 1.11495,0.78094 1.29441,0.77031 2.81001,-0.16638 z m 34.1647,7.35773 c -0.79601,-0.95913 -1.55437,-6.35771 -1.73765,-12.36991 -0.10021,-3.287058 -0.25282,-7.111066 -0.33915,-8.497794 -0.12996,-2.08751 -0.0581,-2.521323 0.41732,-2.521323 0.31586,0 1.02045,-0.31629 1.56577,-0.702863 1.31904,-0.935067 4.27282,-1.911843 5.78144,-1.911843 2.44275,0 5.10551,2.0245 6.10736,4.643441 0.60567,1.583291 0.59723,4.984534 -0.0174,7.026948 l -0.51278,1.703824 2.66282,4.79892 c 1.46456,2.63941 3.14401,5.42926 3.73211,6.19966 1.00021,1.31024 1.02002,1.40074 0.30656,1.40074 -0.41951,0 -1.27807,-0.43362 -1.90791,-0.96361 -1.35352,-1.13891 -4.20583,-4.81643 -5.09883,-6.57399 -1.0327,-2.032496 -1.25826,-2.214173 -2.15391,-1.734838 -1.71269,0.916604 -5.31388,0.100315 -7.00116,-1.58697 l -0.83959,-0.839585 0.25658,4.261993 c 0.14111,2.3441 0.35925,5.14446 0.48474,6.22303 0.20856,1.79243 0.16346,1.96102 -0.52457,1.96102 -0.41402,0 -0.94578,-0.23258 -1.18171,-0.51685 z m 6.82387,-11.089667 c 1.24242,-0.977292 1.24143,-1.637807 -0.004,-2.792196 -1.20984,-1.121235 -1.39868,-1.12912 -2.35885,-0.0985 -0.9125,0.979446 -0.95966,1.721757 -0.18014,2.834688 0.72291,1.032099 1.28647,1.044508 2.54315,0.056 z m -3.91623,-4.431404 c 1.15387,-0.617534 3.09969,-0.467651 4.42582,0.340917 l 1.20627,0.73549 0.45212,-0.83027 c 1.21485,-2.230949 0.11694,-7.94011 -1.74408,-9.069245 -1.00508,-0.60982 -4.16468,0.29071 -5.78042,1.6475 l -1.17719,0.988534 0.26571,4.396875 0.26572,4.396878 0.67178,-1.104654 c 0.36948,-0.60756 1.0059,-1.283473 1.41427,-1.502025 z m 17.7595,12.873081 c -0.7359,-1.12313 -2.72126,-10.722444 -2.86024,-13.829413 -0.0928,-2.073966 -0.0374,-2.251441 0.73653,-2.361393 0.58645,-0.08332 0.94688,0.140196 1.20468,0.747058 0.75154,1.769107 3.3608,14.073558 3.37184,15.900508 0.005,0.85371 -1.81642,0.5145 -2.45281,-0.45676 z m 39.75464,-1.19386 c -0.67231,-0.17867 -2.86373,-5.74819 -3.8699,-9.835412 -0.87814,-3.567147 -2.80016,-12.409103 -2.79678,-12.866154 0.001,-0.216777 0.3798,-0.586415 0.84044,-0.821421 0.46064,-0.235002 1.52341,-0.784759 2.36171,-1.22168 1.78897,-0.932404 5.29641,-1.112811 7.50141,-0.385841 2.97494,0.980814 4.98176,3.545907 4.98176,6.367623 0,0.62849 -0.42844,2.213633 -0.95209,3.522543 l -0.95208,2.379842 1.97929,2.421049 1.97929,2.42105 0.26645,-4.672095 c 0.29828,-5.230383 0.67098,-7.588414 1.79695,-11.369208 0.76984,-2.584965 0.77315,-2.589007 1.9533,-2.381093 1.4256,0.251154 2.01952,0.708619 2.74738,2.11616 0.71559,1.383792 5.74916,17.39677 5.74916,18.289431 0,1.0853 -0.99252,0.792155 -1.80061,-0.531824 -0.40753,-0.667684 -1.28756,-2.606081 -1.95563,-4.307545 -0.69004,-1.757437 -1.39149,-3.01823 -1.62407,-2.919125 -0.22517,0.09595 -1.04964,0.38304 -1.83217,0.637977 -1.98973,0.648242 -2.24757,1.346484 -1.96918,5.332603 0.1308,1.872877 0.085,3.63351 -0.10181,3.91441 -0.64409,0.96846 -2.74713,-0.13994 -4.34179,-2.288313 -0.79915,-1.076628 -2.20397,-2.832279 -3.12183,-3.901448 -1.45359,-1.693223 -1.76586,-1.892012 -2.42114,-1.541316 -0.43314,0.231812 -1.75458,0.322173 -3.11476,0.21299 -2.26117,-0.181506 -2.35494,-0.155463 -2.1873,0.607493 0.0963,0.438419 0.68295,3.003927 1.3036,5.701127 0.62065,2.697197 1.12845,5.008417 1.12845,5.136027 0,0.24977 -0.56553,0.24324 -1.54805,-0.0179 z m 2.23937,-12.486661 c 1.32149,-0.46067 1.48958,-1.072757 0.52265,-1.903199 -1.2151,-1.043593 -1.92374,-1.079123 -2.54713,-0.12771 -0.45623,0.696296 -0.49521,1.06937 -0.17436,1.668873 0.47731,0.891869 0.61428,0.914419 2.19884,0.362036 z m 14.2999,-1.89023 c 0.79424,-0.237961 1.44408,-0.628878 1.44408,-0.868706 0,-0.448068 -1.83292,-5.878405 -2.06352,-6.113549 -0.22207,-0.226437 -0.85472,2.647099 -1.11851,5.080351 -0.1392,1.284008 -0.13002,2.334559 0.0204,2.334559 0.15042,0 0.92332,-0.194695 1.71756,-0.432655 z M 181.0069,88.152938 c 1.40917,-3.906785 -0.71788,-8.241063 -4.02879,-8.209444 -0.99511,0.0095 -3.9277,1.273937 -4.81317,2.075273 -0.55674,0.503843 -0.52914,0.799966 0.34054,3.653477 l 0.94638,3.105194 1.7084,-0.164155 c 1.05724,-0.101588 2.20622,0.0542 3.01451,0.40872 1.80322,0.790911 2.28691,0.642485 2.83213,-0.869065 z m -37.64742,14.551222 c -1.26852,-0.66991 -1.47663,-1.02223 -2.51071,-4.250409 -0.62015,-1.935973 -1.31321,-5.087668 -1.54014,-7.003766 -0.48994,-4.136898 -0.98022,-7.254651 -1.33478,-8.488116 -0.23998,-0.834842 -0.18407,-0.877073 0.82566,-0.623648 0.59569,0.149509 1.27278,0.429275 1.50464,0.621706 0.52985,0.439734 1.50167,3.985088 1.83301,6.687129 0.45925,3.745039 2.09077,9.975151 3.02757,11.561014 0.63528,1.07544 0.69732,1.09355 3.00814,0.87776 2.64036,-0.24656 2.99519,0.0337 1.06413,0.84058 -1.77993,0.7437 -4.22341,0.65131 -5.87752,-0.22225 z m 27.26273,0.10981 c -0.31352,-0.35952 -1.43976,-2.27974 -2.50274,-4.267158 l -1.9327,-3.613475 -1.66397,0.566969 -1.66398,0.566973 v 2.175514 c 0,1.196534 -0.10202,2.441397 -0.22673,2.766357 -0.27029,0.70437 -1.47401,0.78309 -1.89511,0.12394 -0.28035,-0.43884 -0.92104,-21.234065 -0.66287,-21.515172 0.22945,-0.249839 2.72767,0.732391 3.14658,1.237145 0.23189,0.279411 1.23341,2.582029 2.2256,5.116919 0.99218,2.534894 2.90037,7.046177 4.24042,10.025074 2.88736,6.418534 3.19743,7.470584 2.20183,7.470584 -0.38296,0 -0.9528,-0.29415 -1.26633,-0.65367 z m -5.63488,-8.311032 c 0.70889,0 0.5419,-0.842746 -0.77719,-3.922059 l -0.96006,-2.241176 -0.009,3.308346 c -0.008,2.865464 0.0702,3.277993 0.58198,3.081618 0.32495,-0.124703 0.84881,-0.226729 1.16412,-0.226729 z m -13.4938,6.598072 c -0.96958,-0.96957 -1.64831,-3.081446 -2.79093,-8.683961 -1.10816,-5.433545 -1.40971,-9.121573 -0.74521,-9.114274 1.30804,0.01438 1.85513,1.182848 2.97048,6.344281 0.90514,4.188684 2.35437,9.315517 2.94548,10.420014 0.38191,0.71361 0.63937,0.76328 2.88002,0.5557 1.95962,-0.18154 2.42675,-0.12638 2.29431,0.27095 -0.22733,0.682 -1.54151,0.99842 -4.3301,1.04257 -1.99489,0.0316 -2.48387,-0.0951 -3.22405,-0.83528 z M 61.65319,89.294362 c -0.94472,-0.944716 -1.28197,-2.851871 -1.04991,-5.937186 0.22406,-2.97895 1.44221,-5.889801 4.03678,-9.646166 1.0165,-1.471661 1.84691,-2.984455 1.84537,-3.361764 -0.002,-0.377306 -0.58974,-3.711601 -1.30709,-7.409543 -0.71736,-3.697941 -1.31249,-7.227794 -1.32251,-7.844117 -0.0168,-1.032088 -0.10338,-0.955712 -1.09643,0.967071 -1.99305,3.859004 -4.87616,5.487412 -7.7673,4.38704 -2.91141,-1.108094 -3.73769,-3.941012 -3.08691,-10.583534 0.54723,-5.585576 0.70079,-6.229876 1.45038,-6.085526 0.54195,0.104364 0.62958,0.866159 0.70058,6.090643 0.0799,5.883582 0.58795,9.120378 1.47794,9.417043 0.73686,0.245618 2.6964,-2.241718 3.65973,-4.645477 0.51146,-1.276212 1.3667,-4.806065 1.90054,-7.844118 1.83702,-10.454344 1.54613,-9.528959 2.90377,-9.237654 2.40931,0.516961 2.35574,0.381825 2.61311,6.591468 0.22882,5.521055 0.97786,10.636776 2.90106,19.813392 0.77294,3.688155 0.89156,3.969001 1.45937,3.455147 0.67835,-0.613906 2.24009,-0.763382 2.24009,-0.214402 0,0.189708 -0.58235,1.107844 -1.29411,2.040307 l -1.29413,1.695391 0.33665,3.842781 c 0.68132,7.777136 -0.77265,12.955318 -4.12435,14.68855 -1.55647,0.804881 -4.2931,0.710181 -5.18263,-0.179346 z m 4.18506,-3.40236 c 0.87172,-1.729045 1.06798,-2.692852 1.27104,-6.241919 0.13883,-2.426466 0.0979,-4.194306 -0.0971,-4.19041 -0.4983,0.0099 -2.69953,2.766729 -3.18028,3.982918 -0.47041,1.190039 -0.5858,6.580072 -0.16893,7.890469 0.4023,1.264569 1.01621,0.857862 2.17524,-1.441058 z m 65.72722,0.558875 c -0.69972,-0.490101 -0.82571,-0.915659 -0.80176,-2.708088 0.0294,-2.20363 0.68777,-4.606522 1.31978,-4.817189 0.19959,-0.06653 0.64692,0.09141 0.99407,0.35098 0.56917,0.425584 0.59004,0.829728 0.21245,4.113858 -0.2303,2.003052 -0.52575,3.641912 -0.65655,3.641912 -0.1308,0 -0.6114,-0.261665 -1.06799,-0.581473 z M 91.4159,78.005493 c -1.81794,-0.80171 -2.48555,-1.866534 -1.98617,-3.167892 0.19154,-0.499147 0.49021,-0.320925 1.56351,0.932987 0.7297,0.852499 1.62986,1.549997 2.00035,1.549997 1.541,0 1.99299,-6.570961 0.80936,-11.766176 -0.80089,-3.51527 -2.34084,-6.65428 -7.51312,-15.314705 -2.78224,-4.658569 -3.3663,-6.003802 -3.3663,-7.753429 0,-1.380669 0.2069,-1.821251 1.40073,-2.98268 1.98057,-1.926818 4.29742,-2.880794 7.00368,-2.883793 1.23265,-0.0015 2.49331,0.160457 2.80147,0.359608 0.40988,0.264884 0.13012,0.363627 -1.04209,0.367811 -0.8813,0.003 -2.23357,0.327727 -3.00502,0.721292 -1.90736,0.973067 -4.54406,3.89171 -4.54406,5.029966 0,1.331001 2.78326,6.515514 6.55814,12.216163 3.96928,5.994213 5.66317,9.744508 6.41486,14.202608 0.70654,4.190253 0.40698,7.157313 -0.84946,8.413746 -1.14288,1.14288 -3.75266,1.17401 -6.24588,0.0745 z m 38.2771,-0.77829 c -0.95207,-1.149522 -5.68124,-12.461811 -5.68124,-13.58965 0,-1.030952 -1.08671,-0.93268 -3.31478,0.299754 -2.48641,1.375339 -2.62938,1.648781 -2.70078,5.165632 -0.076,3.745334 -0.36161,4.669117 -1.44338,4.669117 -0.73965,0 -0.97201,-0.250362 -1.21339,-1.307353 -0.37962,-1.6624 -0.46726,-31.719097 -0.10373,-35.578676 0.25426,-2.699562 0.33105,-2.894852 1.13828,-2.894852 1.75502,0 2.68662,0.656669 3.27713,2.310002 0.67401,1.887105 2.34903,7.681913 3.97501,13.751762 1.65683,6.185023 3.27883,11.747888 4.30203,14.754411 1.33436,3.920812 3.92773,12.225678 3.92773,12.577935 0,0.486682 -1.73382,0.359962 -2.16288,-0.158082 z m -9.11282,-14.661029 c 1.02256,-0.513603 2.04489,-0.933823 2.27186,-0.933823 0.51681,0 0.52036,-0.415175 0.0149,-1.744555 -0.46218,-1.215632 -3.12957,-11.557026 -3.54836,-13.756916 l -0.28444,-1.494117 -0.28466,1.494117 c -0.20886,1.096279 -0.48547,14.430666 -0.35448,17.08897 0.0201,0.40878 0.14306,0.372006 2.18515,-0.653676 z m 35.18158,12.139706 c -0.41088,-0.410883 -0.74705,-0.887133 -0.74705,-1.058332 0,-0.672391 0.53033,-0.783198 1.13395,-0.23693 0.58815,0.532268 0.65261,0.412003 0.8863,-1.653559 0.50903,-4.499247 -1.15297,-9.853134 -4.66342,-15.022501 -2.65211,-3.905403 -3.16149,-6.476622 -2.03473,-10.270822 0.7669,-2.582433 2.27994,-3.967895 4.16447,-3.813324 1.22195,0.100225 1.46671,0.264074 1.57226,1.052527 0.10105,0.754787 0.033,0.844304 -0.35485,0.466912 -0.75005,-0.729802 -1.00376,-0.579329 -1.88941,1.120588 -0.65886,1.264636 -0.83133,2.239074 -0.84803,4.791243 l -0.021,3.203743 2.9127,4.321728 c 4.32363,6.415181 5.71849,10.642054 4.88579,14.805551 -0.53113,2.655634 -3.34381,3.946394 -4.99703,2.293176 z m -50.48959,-1.133572 c -0.61653,-0.359784 -2.16461,-4.643905 -3.63965,-10.07231 -0.78515,-2.889523 -2.26819,-11.119455 -2.27171,-12.606618 -0.003,-1.036238 1.07625,-1.129377 2.163,-0.186765 0.77069,0.668465 0.82049,0.861258 3.64217,14.100735 0.70056,3.287059 1.42587,6.598386 1.6118,7.358507 0.44262,1.809504 -0.0409,2.261183 -1.50561,1.406451 z m 44.28465,-1.121885 c -0.5474,-0.206076 -1.20466,-1.336025 -2.1478,-3.692443 -0.74746,-1.86752 -1.36159,-3.604442 -1.36474,-3.859825 -0.0161,-1.308305 -0.59173,-1.421899 -2.63605,-0.520206 l -2.02735,0.894203 -0.568,2.569072 c -0.55257,2.499244 -0.6084,2.582563 -2.05441,3.065645 -2.19157,0.732159 -5.72487,0.421244 -7.20708,-0.634186 -2.10243,-1.497061 -2.85669,-3.466618 -2.80821,-7.33298 0.0813,-6.482677 2.81884,-11.766176 6.09647,-11.766176 1.20173,0 1.23105,0.71448 0.083,2.022061 -2.71831,3.095987 -3.77098,11.273027 -1.92967,14.989589 0.89651,1.809548 0.95549,1.851585 2.59822,1.851585 1.6329,0 1.68429,-0.03563 1.80046,-1.247999 0.32545,-3.39629 2.62356,-16.084875 3.09003,-17.060918 1.00266,-2.098014 3.21611,-1.572092 4.36923,1.038146 1.54314,3.493053 5.92541,18.855731 5.61219,19.674298 -0.0646,0.168895 -0.47245,0.17346 -0.90627,0.01012 z m -5.97787,-9.553814 c 1.39493,-0.475301 1.71455,-0.733003 1.50566,-1.21397 -0.14585,-0.335822 -0.60334,-1.829222 -1.01665,-3.318671 -0.41331,-1.489448 -0.86976,-2.708088 -1.01435,-2.708088 -0.14458,0 -0.46159,1.302684 -0.70445,2.894853 -0.24287,1.592169 -0.53142,3.357095 -0.64122,3.922059 -0.2353,1.210631 -0.35716,1.183027 1.87101,0.423817 z m 24.7241,8.381025 c -2.23284,-1.295882 -4.39667,-6.112965 -5.09182,-11.335343 -0.31437,-2.3617 -0.70839,-3.74492 -1.33316,-4.680018 -1.07047,-1.60219 -1.12887,-3.270858 -0.17958,-5.130833 1.96196,-3.844129 5.2669,-4.30474 8.62735,-1.202391 0.89209,0.82358 1.6607,1.497419 1.70801,1.497419 0.0473,0 1.23797,-0.887972 2.64593,-1.973273 3.34524,-2.578623 7.45153,-5.497315 7.73414,-5.497315 0.12291,0 0.0516,0.452068 -0.15848,1.004596 -0.5037,1.324835 -2.89219,3.896738 -6.12986,6.60056 -1.44164,1.203941 -2.6592,2.222489 -2.70569,2.263443 -0.0465,0.04095 0.28003,0.988926 0.72558,2.106605 0.69458,1.742372 0.81082,2.777844 0.81519,7.261561 0.005,5.405848 -0.3732,7.168444 -1.90192,8.857652 -0.69558,0.768608 -3.58507,0.906735 -4.75569,0.227337 z m 3.92753,-3.960629 c 0.83657,-3.926067 0.2323,-12.781713 -0.87217,-12.781713 -0.20929,0 -0.90463,0.322064 -1.5452,0.715697 -0.64057,0.393633 -1.79501,0.83256 -2.56542,0.975394 -1.26681,0.234868 -1.40046,0.371785 -1.39791,1.432097 0.009,3.790789 2.099,10.639525 3.79871,12.448793 l 0.85778,0.913059 0.63452,-0.783601 c 0.34898,-0.430978 0.83935,-1.744857 1.08969,-2.919726 z m -4.48591,-13.730724 c 1.03003,-0.521955 1.96528,-1.190039 2.07832,-1.484634 0.25174,-0.656022 -1.17202,-3.041751 -2.11711,-3.547551 -1.18432,-0.633823 -1.77008,-0.413803 -2.63828,0.990974 -0.77476,1.253591 -0.79173,1.395364 -0.21723,1.815442 0.38426,0.28098 0.62316,0.976877 0.62316,1.815222 0,0.747758 0.0896,1.359558 0.19918,1.359558 0.10955,0 1.04193,-0.427053 2.07196,-0.949011 z m -69.0438,-6.023326 c -1.54305,-0.62165 -1.2085,-3.644392 0.37841,-3.419005 0.7165,0.101765 0.85656,0.379857 0.95369,1.893548 0.11406,1.777708 -0.0993,2.022098 -1.3321,1.525457 z"
       id="path413" /></g></svg>
