<?xml version="1.0" encoding="UTF-8" standalone="no"?>
<!-- Created with Inkscape (http://www.inkscape.org/) -->

<svg
   width="630mm"
   height="210mm"
   viewBox="0 0 630 210"
   version="1.1"
   id="svg5"
   xml:space="preserve"
   sodipodi:docname="gudiño logos.svg"
   inkscape:version="1.2.2 (732a01da63, 2022-12-09)"
   xmlns:inkscape="http://www.inkscape.org/namespaces/inkscape"
   xmlns:sodipodi="http://sodipodi.sourceforge.net/DTD/sodipodi-0.dtd"
   xmlns="http://www.w3.org/2000/svg"
   xmlns:svg="http://www.w3.org/2000/svg"><sodipodi:namedview
     id="namedview7"
     pagecolor="#ffffff"
     bordercolor="#000000"
     borderopacity="0.25"
     inkscape:showpageshadow="2"
     inkscape:pageopacity="0.0"
     inkscape:pagecheckerboard="0"
     inkscape:deskcolor="#d1d1d1"
     inkscape:document-units="mm"
     showgrid="false"
     inkscape:zoom="0.19041982"
     inkscape:cx="2171.5176"
     inkscape:cy="68.270203"
     inkscape:window-width="1920"
     inkscape:window-height="1009"
     inkscape:window-x="-8"
     inkscape:window-y="-8"
     inkscape:window-maximized="1"
     inkscape:current-layer="layer1" /><defs
     id="defs2" /><g
     inkscape:label="Capa 1"
     inkscape:groupmode="layer"
     id="layer1"><g
       id="g2003"
       transform="translate(0.1873443,183.41053)"><path
         style="fill:#aa0000;fill-opacity:1;stroke-width:0.023121;stop-color:#000000"
         d="m 58.308696,-130.78721 c 12.406058,0.12728 22.168867,11.51791 24.938968,20.5243 5.887885,-2.92873 10.329389,-1.01184 16.361413,4.18644 6.974383,-7.34414 16.239803,-17.13714 27.563933,-17.73936 5.58026,-0.38652 10.59284,3.8142 12.34708,10.56331 1.85515,9.01678 -0.90942,19.867786 -5.52412,29.628016 -0.83334,2.903198 -2.53875,5.268218 -3.6072,8.047628 -8.28643,18.67168 -20.20023,35.76555 -36.549801,48.98322 -0.286054,0.35004 -0.654149,0.62478 -1.23165,0.54793 -20.336591,-10.36818 -34.727495,-23.4803 -45.228936,-38.96491 -6.564151,-11.93676 -11.155647,-25.818548 -11.877504,-37.590384 -1.37349,-12.86921 6.617693,-26.5908 19.599436,-27.96754 1.086682,-0.15931 2.15702,-0.22944 3.208381,-0.21865 z"
         id="path1973" /><path
         style="fill:#ffffff;stroke-width:0.0611745"
         d="m 92.60727,-26.045726 c -20.336608,-10.36818 -34.727415,-23.4803 -45.228866,-38.96493 -6.56416,-11.93677 -11.155675,-25.818547 -11.877533,-37.590394 -1.373492,-12.86922 6.617721,-26.59082 19.599477,-27.96757 13.90953,-2.03907 25.142494,10.53601 28.147352,20.30565 5.887893,-2.92872 10.329364,-1.01176 16.361394,4.18652 6.974386,-7.34415 16.239826,-17.13718 27.563966,-17.7394 5.58027,-0.38653 10.59283,3.81417 12.34707,10.56328 1.85516,9.01679 -0.90949,19.867805 -5.52419,29.628045 -0.83334,2.903209 -2.53866,5.268279 -3.60712,8.047699 -8.28643,18.6717 -20.20022,35.76545 -36.549801,48.98313 -0.28606,0.35004 -0.654243,0.62482 -1.231749,0.54797 z m 0.005,-6.30643 c 16.31368,-14.32955 30.76402,-41.44488 36.74973,-56.967037 1.28224,-3.753 7.30604,-19.952127 0.29148,-26.512767 -8.40912,-7.55914 -22.96086,8.99237 -26.53629,14.08625 7.01976,8.207103 7.9427,28.617994 -2.73839,35.773744 -2.454314,1.12661 -6.496788,1.92451 -8.380729,-0.60095 -6.899019,-10.35167 -0.992106,-22.938053 3.092931,-32.861777 -1.675411,-2.213837 -4.738525,-5.478217 -10.055581,-5.577117 0.184568,1.46054 1.785316,4.88047 1.336786,6.971583 0.708164,7.968359 0.852633,16.215631 -1.484041,24.040691 -1.062656,3.36359 -3.39085,7.10336 -8.010738,7.72683 -5.316428,0.64714 -9.911847,-6.17559 -11.38058,-10.44788 -2.553024,-14.207884 0.543354,-20.886326 11.918509,-28.893834 -2.588583,-7.2732 -8.234468,-14.90748 -16.128054,-18.45671 -14.357983,-6.03488 -18.574908,8.87983 -17.902268,17.34456 0.776556,6.791996 1.83409,14.206001 4.410771,20.726361 1.968367,6.423093 5.153703,12.640713 8.995853,18.467053 3.571693,5.26697 7.611275,10.3659 12.546098,14.93092 7.005469,6.87752 14.946202,12.92196 21.916777,19.92897 0.463526,0.367 0.744393,0.9603 1.357505,0.32111 z m 5.09557,-38.31564 c 1.396006,-1.24451 1.299713,-2.92118 1.98986,-4.60768 0.47127,-1.81235 1.17925,-3.85013 1.07034,-5.80063 0.12996,-1.70418 0.69117,-3.18554 0.053,-4.965727 -0.16162,-2.17719 -0.7331,-4.373532 -1.662794,-6.450486 -1.202076,4.671306 -5.842941,18.684753 -1.450463,21.824523 z m -19.718056,-0.4036 c 3.446955,-0.81748 4.579925,-20.845668 1.369152,-30.286824 -7.123815,7.049232 -9.962783,17.699523 -6.182908,25.916384 1.099654,1.64306 3.124759,4.83902 4.813756,4.37044 z"
         id="path1975"
         sodipodi:nodetypes="ccccccccccccccccccccccccccccccccscccccscccc" /><path
         id="path1977"
         style="fill:#ffffff;stroke-width:0.44622"
         d="m 177.24332,-56.910946 c -11.5083,-0.38873 -23.77181,-12.37082 -17.28843,-24.25942 4.77009,-6.485914 11.00837,-11.79327 19.94548,-13.630024 6.88332,-5.32721 30.16445,3.106739 15.26295,6.50251 -11.11679,-2.276855 -36.71488,7.093024 -24.34045,20.306824 6.98642,4.70116 23.9797,6.01432 26.12996,-3.34412 -7.63735,2.1419 -19.58344,-2.11599 -16.54663,-2.36246 -2.12433,-9.18724 20.92542,-6.44134 23.28878,-4.98794 6.4387,10.0147 -0.88803,21.64953 -13.285,21.81339 -4.36332,0.0784 -8.83602,0.66033 -13.16666,-0.0388 z m 22.75727,-32.737629 c -0.53967,-1.631457 -1.10049,1.589603 0,0 z m 368.20228,30.001529 c -7.64153,-0.18052 -16.78267,-1.94187 -21.82328,-8.0231 -7.03397,-6.41856 -1.45412,-18.217596 6.71316,-22.361872 10.36189,-3.188511 22.89767,-7.857811 32.90804,-1.289916 3.72176,1.126433 8.50061,7.783095 6.92263,9.209028 3.64299,3.83063 -0.44941,15.14399 -7.6957,18.79135 -4.84827,2.47503 -12.4407,3.84054 -17.02485,3.67451 z m 3.38544,-7.54071 c 9.06802,1.4927 22.37324,-16.524533 5.43688,-17.985872 -8.56778,-1.778864 -32.21199,1.957842 -21.86671,14.205502 5.709,3.35881 11.67202,2.93062 16.42983,3.78037 z m -67.03511,7.13116 c -12.01685,-4.07079 -22.83021,-11.11413 -34.14693,-17.10454 -14.25823,-13.956529 -5.20933,10.26212 -12.60806,14.72891 -5.8352,-5.46763 -7.22027,-23.696789 -0.32474,-28.551774 14.48509,2.389626 26.50441,13.500884 40.23603,18.825534 6.37664,0.51932 -1.95271,-19.302365 5.28575,-21.524042 9.19918,-0.813675 4.43051,17.712352 5.93484,26.454272 -0.57833,3.00497 -1.64928,5.70559 -4.37689,7.17164 z m -174.12357,-0.88272 c -5.6694,-4.9161 -3.73871,-8.10984 -5.03631,-16.44036 -1.67819,-8.742644 -2.09151,-17.707159 7.44157,-15.843028 9.59278,-2.148654 20.72777,-0.999422 30.98825,2.373846 15.12742,2.989123 11.07671,23.458772 -2.62299,24.114282 -5.66948,2.86568 -9.62459,2.77588 -15.39265,4.36949 -2.88262,-0.65967 -9.63189,1.13404 -11.90932,0.97891 l -1.91213,0.49201 -1.55684,-0.0439 z m 7.71913,-9.03308 c 6.37608,-1.4603 30.02178,-2.37936 25.31622,-11.48225 -8.32274,-4.890119 -24.26558,-5.451364 -30.37066,-5.387384 -0.14717,2.015289 -2.06032,20.681684 5.05444,16.869634 z m 18.25226,-22.353505 c -0.53969,-1.631448 -1.10045,1.589599 0,0 z m -99.06104,30.140565 c -14.14781,1.68844 -25.73913,-28.683527 -11.7133,-28.562081 -1.13291,14.093031 11.83454,25.672471 25.61509,19.212581 7.51841,-2.60289 8.82918,-13.542574 9.09715,-21.654277 7.06703,-4.397947 9.0263,8.316374 7.70283,14.088747 -3.23391,12.81439 -18.48614,19.55396 -30.70177,16.91503 z m 155.81428,-1.00917 c -7.31027,1.41455 -3.79488,-12.23652 -4.50943,-19.43071 -2.51889,-16.313285 11.61495,-9.416957 8.24404,2.75226 -2.23429,4.09369 3.83825,18.07521 -3.73461,16.67845 z m 1.25548,-28.042166 c -1.3795,-2.412194 -0.79289,3.02852 0,0 z m -88.35173,25.460926 c 1.05909,-2.34131 0.38613,2.35697 0,0 z m 130.29651,-38.165534 c -5.34132,-1.79918 -0.14689,-6.82691 4.49391,-6.66159 9.65859,0.18107 20.86343,-3.55125 31.95001,-1.48475 8.09396,-3.99198 16.27318,0.6523 13.41785,4.90278 -5.35052,3.79739 -13.68629,1.24993 -20.84501,2.79849 -9.64852,-0.0472 -19.41265,1.32418 -29.01676,0.44507 z m -0.66389,-3.47634 c -1.79358,-0.18517 -0.29976,2.70944 0,0 z m 48.85575,-4.98822 c -1.7154,-1.59978 -1.14371,1.65276 0,0 z" /></g></g></svg>
