<?xml version="1.0" encoding="UTF-8" standalone="no"?>
<svg
   id="Capa_1"
   version="1.1"
   viewBox="0 0 148.7 23"
   sodipodi:docname="yo_pinto_black.svg"
   inkscape:version="1.2.2 (732a01da63, 2022-12-09)"
   xmlns:inkscape="http://www.inkscape.org/namespaces/inkscape"
   xmlns:sodipodi="http://sodipodi.sourceforge.net/DTD/sodipodi-0.dtd"
   xmlns="http://www.w3.org/2000/svg"
   xmlns:svg="http://www.w3.org/2000/svg">
  <sodipodi:namedview
     id="namedview215"
     pagecolor="#ffffff"
     bordercolor="#000000"
     borderopacity="0.25"
     inkscape:showpageshadow="2"
     inkscape:pageopacity="0.0"
     inkscape:pagecheckerboard="0"
     inkscape:deskcolor="#d1d1d1"
     showgrid="false"
     inkscape:zoom="4.5696032"
     inkscape:cx="102.08764"
     inkscape:cy="16.850478"
     inkscape:window-width="1920"
     inkscape:window-height="1009"
     inkscape:window-x="-8"
     inkscape:window-y="-8"
     inkscape:window-maximized="1"
     inkscape:current-layer="Capa_1" />
  <!-- Generator: Adobe Illustrator 29.8.1, SVG Export Plug-In . SVG Version: 2.1.1 Build 2)  -->
  <defs
     id="defs184">
    <style
       id="style182">
      .st0 {
        fill: #e54053;
      }
    </style>
  </defs>
  <path
     d="m 144.937,20.8 c 1.1,0 2,0 3,0.2 1,0.2 1,0.8 0.1,1.1 -1.6,0.5 -3.7,0.4 -5.4,0.3 -9.5,0 -19,0.3 -28.5,0.2 -4,0 -8.1,-0.2 -12.1,-0.2 -6.899997,0 -13.699997,0.2 -20.499997,0 -4,0 -8.1,-0.3 -12.1,-0.1 -4,0.2 -8.4,0.5 -12.6,0.6 -6.4,0.2 -13,0.1 -19.5,0 -6.5,-0.1 -9.7,-0.2 -14.6,-0.3 -4.9,-0.1 -7.8,0 -11.7,0 -3.8999997,0 -5.5999997,-0.2 -8.3999997,-0.1 -2.8,0.1 -1.6,0.1 -2.2,0 -0.6,-0.1 -0.5,-0.3 -0.4,-0.5 0.5,-0.6 2.8,-0.7 3.8,-0.7 1.7,0 3.5,0 5.2,0 4.0999997,0 8.1999997,0 12.1999997,0 4.5,0 9,0.2 13.6,0.3 8.6,0.1 17.4,0.1 26,-0.2 3.4,-0.1 6.7,-0.3 10.1,-0.4 4,0 8.1,0 12.1,0 7.4,0 14.9,-0.1 22.299997,0 7.4,0.1 12.3,0 18.5,0 7,-0.1 14,-0.2 21,-0.2 z"
     id="path186" />
  <path
     class="st0"
     d="m 122.73128,4.1 c -1.3,0 -2.2,4.3 -2,9.6 0.2,5.3 0.6,3.9 0.6,3.9 -0.5,0.7 -1.3,0.4 -1.6,-0.4 -0.4,-1.2 -1.1,-4 -1.1,-5.3 0,-5.1 0.9,-7.1 2.4,-9.3 1.5,-2.2 1.2,-1 1.9,-1 2,0.2 2.6,2.9 2.6,2.9 0.9,-1.2 2.4,-2.5 3.9,-1.6 1.5,0.9 0.9,0.7 1.2,1.2 0.7,-0.9 1.5,-1.8 2.4,-2.4 0.9,-0.6 1.1,-0.6 1.6,-0.6 1,0 1.6,1.1 2.1,2.5 0.5,1.4 0.4,3.6 -0.3,7.2 -0.7,3.6 -2.6,6 -3.3,6.6 -0.7,0.6 -1.5,0.2 -1.2,-0.4 0.8,-1.5 5.5,-12.3 2.2,-13.3 -3.3,-1 -0.8,-0.4 -2.8,2.2 0,0.5 0.2,1 0.2,1.4 0.2,2 0,4 -0.9,5.8 -0.9,1.8 -1.6,2.2 -2.6,1 -1,-1.2 0,-4.9 0.6,-6.4 0.6,-1.5 0.5,-1 0.5,-1.1 0,-0.1 0.5,-1.8 -1.3,-1.6 -1.8,0.2 -1.6,2 -1.6,2.1 0,0.6 0.2,1.2 0.3,1.8 0.2,1.5 0.7,7.5 -2.5,6.7 -3.2,-0.8 -1.2,-1.4 -1.3,-2.2 -0.2,-2.2 0.7,-4.6 1.6,-6.6 0,0 0,-2.6 -1.5,-2.6 z m 6.2,9.1 c 1.1,0 1.4,-3.9 1.2,-5.6 0,0 -0.5,1 -0.5,1.1 -0.5,1.2 -1.1,3 -0.8,4.3 0.3,1.3 0,0.2 0,0.2 z m -4,-4.9 c 0,0 -1.7,4.6 -0.7,5.5 1,0.9 1.4,0.2 0.7,-5.5 z"
     id="path188" />
  <path
     d="m 22.921354,7.6 c 0,0 0.9,-0.1 1,-0.1 0.5,0 1.9,0 2.3,0.4 0.4,0.4 0.3,0.6 0.1,0.9 -0.3,0.6 -1.9,0.9 -2.6,1.1 -0.7,0.2 -0.6,0.1 -0.9,0.2 -0.8,2.3 -2.2,4.6 -4.4,5.8 -4.3,2.4 -7.2,-1.7 -6.7,-5.7 0.3,-2.4 2,-5.9 4.8,-5.5 0.3,0 0.6,0.2 0.8,0.3 0.2,0.1 0.7,-0.1 1,-0.1 1.9,-0.1 4.1,0.8 4.6,2.9 z m -7.2,0.4 c 1.5,0.3 3.1,0.2 4.6,0 1.5,-0.2 0.2,0 0.2,0 0,-0.1 -0.4,-0.4 -0.5,-0.5 -1.1,-0.7 -2.7,-0.5 -3.8,0.2 z m -1.3,2.3 v 1.1 c 0,0.5 0.7,2 1.1,2.2 0.8,0.5 1.6,0 2.2,-0.5 0.9,-0.7 1.6,-1.6 2.1,-2.5 -1.5,0.2 -3.1,0.3 -4.5,0 -1.4,-0.3 -0.6,-0.2 -0.9,-0.3 z"
     id="path190" />
  <path
     id="path194"
     style="stroke-width:0.629449"
     d="m 33.79741,2.1735582 c -0.06704,-0.012955 -0.100573,-0.032599 -0.241646,-0.016687 -0.825863,0.2994026 -1.015864,0.6606834 -1.468691,2.8111282 -0.09677,0.4379177 -0.232702,0.9586307 -0.351482,1.5009498 -0.237568,1.0846375 -0.463669,2.2502684 4.83e-4,3.1657914 0.230564,0.4547834 0.631334,0.7580094 1.071172,0.9087754 0.439838,0.150768 0.918705,0.172492 1.406339,0.127782 0.975266,-0.0894 1.997914,-0.447315 2.787817,-0.8089698 0.825863,-0.3781189 2.019692,-1.1542516 2.805629,-2.1207954 0.392963,-0.4832724 0.694256,-1.0237542 0.720897,-1.6262579 0.0266,-0.602507 -0.2796,-1.2213851 -0.901641,-1.6784024 -0.0048,-0.0031 -0.0085,-0.00604 -0.01299,-0.00895 C 39.309063,4.2209146 38.847623,4.0067744 38.278241,3.7632319 37.708858,3.5196894 37.045642,3.2610203 36.400779,3.0228699 35.755905,2.7847187 35.132134,2.5686185 34.643568,2.4123381 34.399285,2.3341981 34.189606,2.2704305 34.022392,2.2260601 33.938772,2.2038741 33.864572,2.1865141 33.79752,2.1735561 Z m 0.750074,2.8808091 c 0.104359,0.056939 0.125924,0.076148 0.314982,0.1680019 0.838868,0.4075623 1.76292,0.6759759 2.501196,1.0346699 0.0057,0.00325 0.0124,0.00644 0.01877,0.00944 0.01084,0.00468 0.03106,0.01939 0.04663,0.0275 -0.033,0.031566 -0.02555,0.023052 -0.06619,0.062962 -0.409139,0.4024073 -0.440396,0.4437525 -1.215963,0.811706 -0.622564,0.2953675 -1.273669,0.4999796 -1.958582,0.601348 l 0.01046,-0.1225983 c 0.06556,-0.7686599 0.255854,-1.5057553 0.324359,-2.3089123 z m 3.03068,1.3307398 c 0.0017,0.015513 0.0012,0.032813 0.0042,0.045439 -0.0015,-0.00653 -0.0033,-0.00826 -0.0045,-0.018024 -4.37e-4,-0.00664 7.31e-4,-0.015395 3.31e-4,-0.027415 z"
     sodipodi:nodetypes="cccssscsscccsssscccsccccscscccccc" />
  <path
     d="m 49.689687,10.056512 c -0.2,1 -0.2,2.1 -0.5,3.1 -0.3,1 -0.5,2.5 -1.6,2.3 -1.1,-0.2 -0.6,-1.8 -0.6,-2.5 0,-1.9 0.2,-4.0999999 0.4,-5.9999999 0.2,-1.9 0.8,-1.8 1.9,-1.6 1.1,0.2 3.1,3.3 3.8,4.3 0.7,0.9999999 1.5,1.8999999 2.2,2.7999999 0.2,-1.4 0.8,-4.8999999 0.9,-5.3999999 0.2,-1 0.3,-2.1 0.6,-3.1 0.3,-1 0.7,-0.7 1.2,-0.5 0.5,0.2 0.6,0.9 0.7,1.5 0,1.1 -0.4,6.9999999 -0.7,8.5999999 -0.3,1.6 -0.3,3.7 -2.2,3.6 -1.9,-0.1 -1.7,-1.2 -2.3,-1.9 -0.6,-0.7 -1.4,-1.6 -2,-2.4 -0.6,-0.8 -1.3,-1.8 -1.9,-2.8 z"
     id="path196" />
  <path
     d="m 145.9668,12.3 c -0.8,-0.1 -3,0.2 -4.9,0.6 -0.4,0.7 -0.9,1.6 -1.2,2.3 -0.5,1.2 -1,1.3 -1.5,1.1 -0.5,-0.2 -0.4,-0.8 -0.3,-1.1 1.1,-4.2 4,-8.2 6.1,-11.9 2.1,-3.7 0.3,-0.9 0.8,-1.2 0.5,-0.3 1.2,-0.2 1.7,0.2 1,1 1.2,4.9 1.4,6.4 0.3,2.2 0.9,5.1 0.5,7.3 -0.4,2.2 -1.1,1.1 -1.6,0.2 -0.5,-0.9 -0.8,-2.5 -1,-3.8 z m -0.5,-2.1 -0.7,-4.4 -2.8,4.8 c 1.1,0 2.4,-0.2 3.6,-0.4 z"
     id="path198" />
  <path
     d="m 114.23128,1.7 c 0.4,0 1,0 1.2,0.5 0.2,0.8 -0.9,1.2 -1.5,1.6 -0.6,0.4 -1.3,1.5 -1.2,2.2 0.1,0.7 1.5,1.9 2.1,2.5 1.1,1.2 2.3,3.8 2.2,5.3 -0.1,1.5 -2.1,3.4 -4,3 -1.9,-0.4 -2.9,-1.1 -2.3,-2.5 0.6,-1.4 1.1,-0.6 1.3,0 0.2,0.6 0,0.4 0.4,0.6 1.5,0.6 2.1,-0.8 1.9,-1.6 -0.2,-0.8 -1,-2.4 -1.7,-3.2 -1.3,-1.5 -2.9,-2.9 -2.3,-4.9 0.6,-2 2.2,-3.2 4,-3.4 z"
     id="path202" />
  <path
     d="m 6.5662447,9.0826943 c 0,0 -0.141421,-0.1414213 -0.141421,-0.1414213 C 5.3641637,7.7391914 4.4449247,6.1128458 3.4549747,4.8400536 2.4650257,3.5672614 2.1114727,3.4965507 1.4043657,3.6379721 0.69725868,3.7793935 0.48512668,4.2743682 0.55583768,4.769343 c 0.212132,1.6263456 4.17192902,7.141778 5.30330002,7.566042 1.131371,0.424264 1.4849248,-0.07071 1.9798988,-0.707106 1.131371,-1.131371 2.3334525,-2.7577167 3.2526915,-4.1012196 0.919238,-1.3435029 1.555635,-2.1213203 2.333452,-3.1819805 0.777817,-1.0606602 1.343503,-2.0506097 0.989949,-2.8284271 -0.353553,-0.77781749 -1.202081,-0.4949748 -1.697056,0 C 11.515992,2.5773119 10.31391,4.2036576 9.1825395,5.4764498 8.0511685,6.749242 7.3440625,7.8806127 6.4955347,9.0119837 Z"
     id="path206" />
  <path
     d="m 69.563258,1.4105482 c 0.58494,-0.1335833 1.33416,0.00304 1.39252,0.7077343 0.0584,0.7046945 -0.13662,0.7492223 -0.42909,0.816014 -0.29247,0.066792 -0.29247,0.066792 -0.48745,0.1113195 -0.77992,0.1781111 -6.38982,1.6643972 -8.41485,2.2294291 -0.704691,0.058357 -1.462351,0.3339584 -2.091821,0.2725616 -0.62947,-0.061397 -1.00256,-0.7967899 -0.50667,-1.3203336 0.49588,-0.5235438 1.86074,-0.8352383 2.520911,-1.0885756 1.44009,-0.4314486 6.77978,-1.7534528 7.99419,-1.8256394 z"
     id="path208" />
  <path
     d="m 106.23128,2.3 c 0.7,0 0.8,0.7 0.9,1.3 0,1.5 -0.1,3 -0.3,4.5 -0.2,2.2 -0.4,4.5 -0.5,6.8 -0.1,2.3 0.1,1.3 -0.2,1.9 -0.3,0.6 -1.1,0.9 -1.6,0.2 -0.5,-0.7 -0.4,-2.3 -0.4,-3.2 0,-3.3 0.3,-7 1.3,-10.2 1,-3.2 0.4,-1.2 0.9,-1.3 z"
     id="path210" />
  <path
     d="m 44.537857,15.256944 c -0.2,0.324994 -0.4,0.649987 -0.8,0.758319 -0.7,0.216662 -1.2,-0.324994 -1.4,-1.083313 -0.2,-0.758319 -0.2,-1.841631 -0.2,-2.708281 0,-1.841631 0,-3.5749314 0,-5.4165628 0,-1.8416314 0,-1.9499626 0.2,-2.7082814 0.2,-0.7583189 1.2,-1.4083064 1.8,-0.9749814 0.6,0.4333251 0.6,0.8666501 0.6,1.4083064 0.3,2.924944 0,5.9582192 0,8.7748312 0,2.816613 0.2,1.191644 0,1.7333 -0.2,0.541657 -0.2,0.216663 -0.2,0.324994 z"
     id="path212"
     style="stroke-width:1.04082" />
  <path
     d="m 34.091637,3.6 c 0,1.5 -0.1,3 -0.3,4.5 -0.2,2.2 -0.4,4.5 -0.5,6.8 -0.1,2.3 0.1,1.3 -0.2,1.9 -0.3,0.6 -1.1,0.9 -1.6,0.2 -0.500001,-0.7 -0.400001,-2.3 -0.400001,-3.2 0,-3.3 0.350321,-6.9479245 1.300001,-10.2 0.10048,-0.344077 0.49814,-1.1124066 0.9,-1.3 -0.19106,1.0606958 0.63734,1.2556094 0.8,1.3 z"
     id="path981"
     sodipodi:nodetypes="ccssssscc" />
  <path
     d="m 64.233218,15.804037 c -0.2,0.324994 -0.4,0.649987 -0.8,0.758319 -0.7,0.216662 -1.2,-0.324994 -1.4,-1.083313 -0.2,-0.758319 -0.2,-1.841631 -0.2,-2.708281 0,-1.841631 0,-3.5749309 0,-5.4165623 0,-1.8416314 0,-1.9499626 0.2,-2.7082814 0.2,-0.7583189 1.2,-1.4083064 1.8,-0.9749814 0.6,0.4333251 0.6,0.8666501 0.6,1.4083064 0.3,2.924944 0,5.9582187 0,8.7748307 0,2.816613 0.2,1.191644 0,1.7333 -0.2,0.541657 -0.2,0.216663 -0.2,0.324994 z"
     id="path1083"
     style="stroke-width:1.04082" />
  <path
     d="M 10.415496,5.098848 C 9.2014915,6.2191051 8.0684185,7.414046 7.0162817,8.6836708 5.3976067,10.476083 3.6979987,12.343178 1.9174567,14.135589 0.13691468,15.928 0.78438368,15.031795 0.54158268,15.703949 c -0.242801,0.672154 0.161868,1.493676 1.13307302,1.344308 0.971205,-0.149366 2.185211,-1.418991 2.913614,-2.091146 C 7.2590825,12.492546 9.9279555,9.5065035 11.79137,6.3684727 11.988522,6.0364607 12.288519,5.1656552 12.115104,4.725429 11.411276,5.6602878 10.58307,5.1871761 10.415496,5.098848 Z"
     id="path1085"
     sodipodi:nodetypes="ccssssscc"
     style="stroke-width:1.09949" />
  <path
     d="m 77.936958,7.6 c 0,0 0.9,-0.1 1,-0.1 0.5,0 1.9,0 2.3,0.4 0.4,0.4 0.3,0.6 0.1,0.9 -0.3,0.6 -1.9,0.9 -2.6,1.1 -0.7,0.2 -0.6,0.1 -0.9,0.2 -0.8,2.3 -2.2,4.6 -4.4,5.8 -4.3,2.4 -7.2,-1.7 -6.7,-5.7 0.3,-2.4 2,-5.9 4.8,-5.5 0.3,0 0.6,0.2 0.8,0.3 0.2,0.1 0.7,-0.1 1,-0.1 1.9,-0.1 4.1,0.8 4.6,2.9 z m -7.2,0.4 c 1.5,0.3 3.1,0.2 4.6,0 1.5,-0.2 0.2,0 0.2,0 0,-0.1 -0.4,-0.4 -0.5,-0.5 -1.1,-0.7 -2.7,-0.5 -3.8,0.2 z m -1.3,2.3 v 1.1 c 0,0.5 0.7,2 1.1,2.2 0.8,0.5 1.6,0 2.2,-0.5 0.9,-0.7 1.6,-1.6 2.1,-2.5 -1.5,0.2 -3.1,0.3 -4.5,0 -1.4,-0.3 -0.6,-0.2 -0.9,-0.3 z"
     id="path1087" />
  <path
     d="m 92.3441,13.719592 c -0.524815,0.416511 -3.540066,2.65533 -6.032321,-1.384017 -1.956036,-3.1640084 -1.020246,-5.8894846 1.123252,-7.2832477 0.700702,-0.441066 2.271735,-1.3298289 3.173456,-0.6066692 0.90172,0.7231601 0.423132,0.8797597 -0.01406,0.965796 -0.437196,0.086035 -0.621976,0.024312 -1.02887,0.2470556 -1.250984,0.5315222 -2.953227,2.1148744 -2.713787,3.9670593 0.23944,1.852187 1.465145,3.523106 2.864789,3.404271 1.093233,-0.09282 1.072472,-0.380427 1.760963,-0.83739 0.521576,-0.803035 1.712666,0.09243 0.866581,1.527143 z"
     id="path192"
     sodipodi:nodetypes="cccsscsscc"
     style="stroke-width:0.624377" />
  <path
     d="m 94.956764,9.033773 c -0.243881,0.7670182 -0.397131,1.613996 -0.693295,2.379531 -0.296167,0.765535 -0.609706,1.917542 -1.156963,1.747239 -0.547254,-0.170307 -0.06294,-1.394861 0.03458,-1.933848 0.2647,-1.4629651 0.67576,-3.1539604 1.045026,-4.6139606 0.369265,-1.460001 0.669035,-1.3741083 1.216291,-1.2038049 0.547255,0.1703031 1.16105,2.5868951 1.38772,3.3672539 0.226668,0.7803583 0.519551,1.4852006 0.760159,2.1885646 0.299605,-1.0750119 1.100906,-3.7610539 1.222848,-4.1445626 0.243882,-0.7670173 0.449407,-1.6125157 0.745577,-2.3780491 0.296202,-0.7655198 0.463499,-0.5286106 0.697053,-0.3672046 0.23356,0.1614099 0.18832,0.7018806 0.15701,1.1653514 -0.15322,0.846981 -1.184329,5.3839439 -1.564089,6.6114649 -0.379724,1.227535 -0.672318,2.844487 -1.651769,2.739322 -0.979454,-0.105156 -0.721639,-0.949179 -0.937818,-1.497061 -0.216179,-0.547881 -0.509065,-1.252724 -0.711313,-1.877604 -0.202249,-0.624879 -0.428918,-1.405237 -0.603304,-2.1841134 z"
     id="path1091"
     style="stroke-width:0.636113" />
  <path
     d="m 93.184201,7.7847936 c 0,0 0.40964,-0.045518 0.455154,-0.045518 0.227577,0 0.864794,0 1.046856,0.1820615 0.182062,0.1820623 0.136547,0.2730931 0.04552,0.4096392 -0.136543,0.2730927 -0.864791,0.4096396 -1.183399,0.5006703 -0.318608,0.091031 -0.273092,0.045518 -0.409639,0.091031 -0.364124,1.0468563 -1.00134,2.0937124 -2.002681,2.6398964 -1.957164,1.092372 -3.277113,-0.773762 -3.049535,-2.594381 0.136546,-1.0923713 0.910309,-2.6854125 2.184742,-2.5033503 0.136546,0 0.273093,0.091031 0.364124,0.1365461 0.09103,0.045518 0.318608,-0.045518 0.455154,-0.045518 0.864794,-0.045518 1.866135,0.3641238 2.093712,1.3199483 z m -3.277114,0.1820615 c 0.682732,0.1365469 1.41098,0.091031 2.093712,0 0.682731,-0.091031 0.09103,0 0.09103,0 0,-0.045518 -0.182061,-0.1820615 -0.227577,-0.2275769 -0.500669,-0.3186084 -1.228917,-0.2275776 -1.729587,0.091031 z M 89.315386,9.013711 v 0.5006711 c 0,0.2275765 0.318608,0.9103089 0.500671,1.0013399 0.364123,0.227577 0.728247,0 1.00134,-0.227577 0.409639,-0.3186082 0.728247,-0.7282476 0.955824,-1.1378871 -0.682732,0.091031 -1.410979,0.1365462 -2.048196,0 C 89.087809,9.013711 89.451933,9.0592272 89.315386,9.013711 Z"
     id="path1166"
     style="stroke-width:0.455154" />
</svg>
