<?xml version="1.0" encoding="UTF-8"?>
<svg id="Capa_1" xmlns="http://www.w3.org/2000/svg" version="1.1" viewBox="0 0 148.7 23">
  <!-- Generator: Adobe Illustrator 29.8.1, SVG Export Plug-In . SVG Version: 2.1.1 Build 2)  -->
  <defs>
    <style>
      .st0 {
        fill: #e54053;
      }
    </style>
  </defs>
  <path d="M144.9,20.8c1.1,0,2,0,3,.2s1,.8.1,1.1c-1.6.5-3.7.4-5.4.3-9.5,0-19,.3-28.5.2-4,0-8.1-.2-12.1-.2-6.9,0-13.7.2-20.5,0-4,0-8.1-.3-12.1-.1s-8.4.5-12.6.6c-6.4.2-13,.1-19.5,0s-9.7-.2-14.6-.3-7.8,0-11.7,0-5.6-.2-8.4-.1-1.6.1-2.2,0-.5-.3-.4-.5c.5-.6,2.8-.7,3.8-.7,1.7,0,3.5,0,5.2,0,4.1,0,8.2,0,12.2,0,4.5,0,9,.2,13.6.3,8.6.1,17.4.1,26-.2,3.4-.1,6.7-.3,10.1-.4,4,0,8.1,0,12.1,0,7.4,0,14.9-.1,22.3,0s12.3,0,18.5,0c7-.1,14-.2,21-.2Z"/>
  <path class="st0" d="M18.8,4.1c-1.3,0-2.2,4.3-2,9.6s.6,3.9.6,3.9c-.5.7-1.3.4-1.6-.4-.4-1.2-1.1-4-1.1-5.3,0-5.1.9-7.1,2.4-9.3s1.2-1,1.9-1c2,.2,2.6,2.9,2.6,2.9.9-1.2,2.4-2.5,3.9-1.6s.9.7,1.2,1.2c.7-.9,1.5-1.8,2.4-2.4s1.1-.6,1.6-.6c1,0,1.6,1.1,2.1,2.5s.4,3.6-.3,7.2-2.6,6-3.3,6.6-1.5.2-1.2-.4c.8-1.5,5.5-12.3,2.2-13.3s-.8-.4-2.8,2.2c0,.5.2,1,.2,1.4.2,2,0,4-.9,5.8s-1.6,2.2-2.6,1,0-4.9.6-6.4.5-1,.5-1.1c0-.1.5-1.8-1.3-1.6s-1.6,2-1.6,2.1c0,.6.2,1.2.3,1.8.2,1.5.7,7.5-2.5,6.7s-1.2-1.4-1.3-2.2c-.2-2.2.7-4.6,1.6-6.6,0,0,0-2.6-1.5-2.6ZM25,13.2c1.1,0,1.4-3.9,1.2-5.6,0,0-.5,1-.5,1.1-.5,1.2-1.1,3-.8,4.3s0,.2,0,.2ZM21,8.3c0,0-1.7,4.6-.7,5.5s1.4.2.7-5.5Z"/>
  <path d="M144.9,7.6s.9-.1,1-.1c.5,0,1.9,0,2.3.4s.3.6.1.9c-.3.6-1.9.9-2.6,1.1s-.6.1-.9.2c-.8,2.3-2.2,4.6-4.4,5.8-4.3,2.4-7.2-1.7-6.7-5.7.3-2.4,2-5.9,4.8-5.5.3,0,.6.2.8.3s.7-.1,1-.1c1.9-.1,4.1.8,4.6,2.9ZM137.7,8c1.5.3,3.1.2,4.6,0s.2,0,.2,0c0-.1-.4-.4-.5-.5-1.1-.7-2.7-.5-3.8.2l-.5.3ZM136.4,10.3v1.1c0,.5.7,2,1.1,2.2.8.5,1.6,0,2.2-.5.9-.7,1.6-1.6,2.1-2.5-1.5.2-3.1.3-4.5,0s-.6-.2-.9-.3Z"/>
  <path d="M82.6,10.2c-.3,0-4,.3-4.6,0s-.6-1.6,0-1.8,3.4-.5,3.8-.5c1.9-.1,3.6.6,3.3,2.8-1,6.1-9.4,8-12.2,2-2.2-4.7.5-8.6,4.8-10.5,1.4-.6,4.5-1.8,5.8-.7s.4,1.3-.4,1.4-1.1,0-1.9.3c-2.4.7-6,2.9-6.3,5.6s1.2,5.2,3.7,5.1,3.7-1.9,4.1-3.7Z"/>
  <path d="M99.8,4.4s0,0,.1-.1c.3-.3.5-.4,1-.5s7.8,1.8,9.4,2.7c3.6,2.2-1.1,6.4-3.4,7.7s-6.1,2.7-7.4.6.4-7.1.1-8.7-.4-.4-.2-1.2.1-.4.2-.5ZM101.9,12.8c1.5-.2,2.8-.8,4-1.5s1.4-.9,2-1.6.5-.5.5-.6c.1-.3-.5-.6-.8-.7-1.3-.5-2.8-.8-4.1-1.3s-1-.5-1.5-.6c0,0,0,1.3,0,1.5,0,1.2-.2,2.4-.2,3.7s0,1,0,1Z"/>
  <path d="M122.5,9.4c-.2,1-.2,2.1-.5,3.1s-.5,2.5-1.6,2.3-.6-1.8-.6-2.5c0-1.9.2-4.1.4-6s.8-1.8,1.9-1.6,3.1,3.3,3.8,4.3,1.5,1.9,2.2,2.8c.2-1.4.8-4.9.9-5.4.2-1,.3-2.1.6-3.1s.7-.7,1.2-.5.6.9.7,1.5c0,1.1-.4,7-.7,8.6s-.3,3.7-2.2,3.6-1.7-1.2-2.3-1.9-1.4-1.6-2-2.4-1.3-1.8-1.9-2.8Z"/>
  <path d="M41.8,12.3c-.8-.1-3,.2-4.9.6-.4.7-.9,1.6-1.2,2.3-.5,1.2-1,1.3-1.5,1.1s-.4-.8-.3-1.1c1.1-4.2,4-8.2,6.1-11.9s.3-.9.8-1.2,1.2-.2,1.7.2c1,1,1.2,4.9,1.4,6.4.3,2.2.9,5.1.5,7.3s-1.1,1.1-1.6.2-.8-2.5-1-3.8ZM41.3,10.2l-.7-4.4-2.8,4.8c1.1,0,2.4-.2,3.6-.4Z"/>
  <path d="M50.5,7c.4,0,.9,0,1.3,0s1.1-.1,1.6,0c.9.3,1.1,1.4.6,2.1s-1.9,1.2-2.5,1.6-2.5,1.6-2.7,2.4,0,.2,0,.2c-.1,1.5,2.5.5,3.8,0s.8-.4,1-.4c.6-.2,1.2.3,1.1.9-.2,1.1-1.9,1.7-2.8,2-1.9.6-4.4,1.5-5.6-.8s.9-4.7,2.9-6c-.2-.2-.5-.3-.7-.5-1.3-1.5.4-3.4,1.6-4.3s3-1.8,3.8-1.9,1.4.6.9,1.3-1.2.7-1.6,1c-.8.5-1.9,1.2-2.5,1.9s-.3.4-.3.4Z"/>
  <path d="M10.3,1.7c.4,0,1,0,1.2.5.2.8-.9,1.2-1.5,1.6s-1.3,1.5-1.2,2.2,1.5,1.9,2.1,2.5c1.1,1.2,2.3,3.8,2.2,5.3s-2.1,3.4-4,3-2.9-1.1-2.3-2.5,1.1-.6,1.3,0,0,.4.4.6c1.5.6,2.1-.8,1.9-1.6s-1-2.4-1.7-3.2c-1.3-1.5-2.9-2.9-2.3-4.9s2.2-3.2,4-3.4Z"/>
  <path d="M95.8,2.9c.3,0,.6,0,.7.3.5.7-.3,8.4-1.8,10.3-2.3,2.9-6.1,2.1-7.1-1.5s-.5-5.7.3-7.3,1.3-1.2,1.7-.3,0,1.1,0,1.6c0,1.5,0,5,.9,6.1s1.3.3,1.8-.3c.8-.9,1.6-3.3,1.7-4.5,0-.8.6-3.7.8-3.9s.7-.5,1-.5Z"/>
  <path d="M59.5,13.6c0,0,.2,0,.2,0,1.6-.1,3.4-.6,5-.8s1.9,0,2.3.6.2,1.1-.2,1.4c-1.3,1-8,2.1-9.1,1.6s-1-1.1-.9-1.9c0-1.6.3-3.6.6-5.2s.4-2.6.6-3.9.5-2.4,1.3-2.7,1.2.5,1.2,1.2c.1,1.6-.2,3.6-.3,5.3s-.4,3-.6,4.4Z"/>
  <path d="M131.1.1c.6,0,1.3.3,1.2,1s-.3.7-.6.7-.3,0-.5,0c-.8,0-6.6.2-8.7.3-.7-.1-1.5,0-2.1-.2s-.8-1-.2-1.4,2-.4,2.7-.5c1.5-.1,7-.2,8.2,0Z"/>
  <path d="M2.3,2.3c.7,0,.8.7.9,1.3,0,1.5-.1,3-.3,4.5-.2,2.2-.4,4.5-.5,6.8s.1,1.3-.2,1.9-1.1.9-1.6.2-.4-2.3-.4-3.2c0-3.3.3-7,1.3-10.2s.4-1.2.9-1.3Z"/>
  <path d="M116.4,14.7c-.2.3-.4.6-.8.7-.7.2-1.2-.3-1.4-1s-.2-1.7-.2-2.5c0-1.7,0-3.3,0-5s0-1.8.2-2.5,1.2-1.3,1.8-.9.6.8.6,1.3c.3,2.7,0,5.5,0,8.1s.2,1.1,0,1.6-.2.2-.2.3Z"/>
</svg>